<svg width="100" height="100" viewBox="0 0 100 100" fill="none" xmlns="http://www.w3.org/2000/svg">
<mask id="mask0_2955_770" style="mask-type:alpha" maskUnits="userSpaceOnUse" x="0" y="0" width="100" height="100">
<rect width="100" height="100" transform="matrix(-1 0 0 1 100 0)" fill="#D9D9D9"/>
</mask>
<g mask="url(#mask0_2955_770)">
<path d="M53.4499 87.6419C33.3366 87.6419 17.0316 78.4527 17.0316 67.1173C17.0316 55.7819 33.3366 46.5928 53.4499 46.5928C73.5632 46.5928 89.8682 55.7819 89.8682 67.1173C89.8682 78.4527 73.5632 87.6419 53.4499 87.6419Z" fill="#DEEBF5"/>
<path d="M57.5784 47.0242L72.452 58.6554L89.1208 61.9558L61.7656 78.3216L45.1013 74.6767L33.3117 62.255L22.3158 61.8288L11.2123 48.8313L38.7199 32.606L49.958 45.5808L57.5784 47.0242Z" fill="white" stroke="#0061AF" stroke-width="1.5" stroke-miterlimit="10" stroke-linecap="round" stroke-linejoin="round"/>
<path d="M72.3277 58.6777L45.1743 74.6719" stroke="#0061AF" stroke-width="1.5" stroke-miterlimit="10" stroke-linecap="round" stroke-linejoin="round"/>
<path d="M76.1982 64.522L56.4697 68.0035L46.4603 54.8027L28.9076 57.2688L21.0741 48.2749" stroke="#0061AF" stroke-width="1.5" stroke-miterlimit="10" stroke-linecap="round" stroke-linejoin="round" stroke-dasharray="3 3"/>
<path d="M57.4551 47.3931L33.1919 62.25" stroke="#0061AF" stroke-width="1.5" stroke-miterlimit="10" stroke-linecap="round" stroke-linejoin="round"/>
<path d="M49.865 45.517L22.3394 61.7831" stroke="#0061AF" stroke-width="1.5" stroke-miterlimit="10" stroke-linecap="round" stroke-linejoin="round"/>
<path d="M83.7416 73.0282V59.3965C83.7416 58.8389 84.0776 58.3403 84.5982 58.1238L96.0574 53.4072C96.0772 53.4006 96.097 53.4137 96.097 53.4334V68.1476V68.1541L84.3808 73.4415C84.0842 73.5793 83.7416 73.3563 83.7416 73.0282Z" fill="white" stroke="#0062AD" stroke-width="1.5" stroke-miterlimit="10"/>
<path d="M82.553 57.807L71.0149 53.1105C70.995 53.104 70.995 53.0779 71.0149 53.0649L83.4349 48.0492C83.6007 47.984 83.7797 47.984 83.9388 48.0492L96.0074 52.9867C96.1267 53.0323 96.1267 53.2017 96.0074 53.2473L84.8274 57.807C84.098 58.1197 83.2757 58.1132 82.553 57.807Z" fill="white" stroke="#0062AD" stroke-width="1.5" stroke-miterlimit="10"/>
<path d="M71.2422 53.0322C71.1244 52.9855 71 53.0723 71 53.1993L71.2291 67.8076C71.2291 68.1885 71.4583 68.5294 71.8052 68.6697L83.7201 73.4812C83.7332 73.4879 83.7463 73.4745 83.7398 73.4678L83.707 58.913C83.707 58.5989 83.5237 58.3249 83.2422 58.1979L71.2422 53.0322Z" fill="white" stroke="#0062AD" stroke-width="1.5" stroke-miterlimit="10"/>
<path d="M89.5332 56.0243V61.8999L93.0082 60.338V54.5638L89.5332 56.0243Z" fill="#0062AD" stroke="#0062AD" stroke-miterlimit="10"/>
<path d="M89.3789 56.1083L86.4438 54.6259L90.0468 53.0194L93.0076 54.5156L89.3789 56.1083Z" fill="#0062AD" stroke="#0062AD" stroke-miterlimit="10"/>
<path d="M77.3703 55.7221L89.9188 50.4205L84.1642 48.1039C83.8655 47.9676 83.527 47.9676 83.2283 48.0909L71.4604 53.1135C71.3608 53.1589 71.3608 53.3017 71.4604 53.3406L77.3703 55.7221Z" fill="#0062AD" stroke="#0062AD" stroke-miterlimit="10"/>
<path d="M21.3 47.7785C23.8449 42.5902 26.3858 37.4019 28.9307 32.2175C31.6686 26.6349 34.4799 20.6971 33.9856 14.4821C33.7501 11.4995 32.6534 8.46617 30.4136 6.51031C28.9616 5.24155 27.108 4.4959 25.2119 4.22263C20.5392 3.54335 15.6928 5.74905 12.6575 9.40311C9.62226 13.0572 8.30156 17.98 8.51395 22.7467C8.72634 27.5133 10.383 32.1316 12.7232 36.2737C15.0672 40.4157 18.0832 44.1283 21.3 47.7785Z" fill="#0061AF" stroke="#0061AF" stroke-width="1.5" stroke-miterlimit="10" stroke-linecap="round" stroke-linejoin="round"/>
<path d="M27.4219 4.64808C26.4488 4.0703 25.4563 3.52766 24.4368 3.02796C22.6566 2.15349 20.7142 1.6733 18.737 1.62255C18.7215 1.62255 18.7099 1.62255 18.6945 1.62255C17.5901 1.59523 16.4856 1.78652 15.4623 2.21204C12.6548 3.38322 10.1177 5.21024 8.11347 7.51745C6.08609 9.85199 4.61092 12.6706 3.85017 15.6688C3.61075 16.6214 3.4949 17.6012 3.50262 18.585C3.51421 21.2709 3.94671 23.9451 4.85421 26.467C7.0824 32.6625 10.7703 38.2997 14.7865 43.6012C15.7519 44.8778 17.0301 45.8772 18.486 46.5175L21.2664 47.7355" stroke="#0061AF" stroke-width="1.5" stroke-miterlimit="10" stroke-linecap="round" stroke-linejoin="round"/>
<path d="M27.103 23.757C29.1234 19.656 28.2666 15.0754 25.1892 13.5259C22.1119 11.9765 17.9793 14.045 15.9589 18.1461C13.9385 22.2471 14.7953 26.8277 17.8727 28.3771C20.95 29.9265 25.0826 27.858 27.103 23.757Z" fill="white" stroke="#0061AF" stroke-width="1.5" stroke-miterlimit="10"/>
<path d="M22.1023 13.0177C23.2685 15.1531 23.2569 18.245 21.8513 21.1066C20.4109 24.0267 17.9046 25.9162 15.4641 26.2012" stroke="#0061AF" stroke-width="1.5" stroke-miterlimit="10"/>
</g>
</svg>
