<svg width="69" height="83" viewBox="0 0 69 83" fill="none" xmlns="http://www.w3.org/2000/svg">
<path d="M5.80152 80.3708C5.87991 80.2934 5.97909 80.2024 6.09665 80.0994C6.06047 80.0678 6.02225 80.0407 5.98339 80.0181L5.80152 80.3708ZM5.42276 79.6963L1.30818 77.3367L1.28928 77.3258L1.26977 77.3161C1.06024 77.2116 0.788971 76.9133 0.788971 76.161V28.9101C0.788971 28.1779 1.0492 27.3154 1.50702 26.5207C1.96488 25.726 2.58022 25.0688 3.21727 24.7035L3.21844 24.7028L44.2444 1.07732L44.2445 1.07741L44.2553 1.07095C44.8598 0.709181 45.2938 0.782252 45.5038 0.911158L45.5142 0.917527L45.5248 0.923556L49.5673 3.22748C49.4968 3.50006 49.4253 3.84368 49.3535 4.22483C49.2028 5.02486 49.0363 6.07065 48.8644 7.15047C48.8357 7.33082 48.8069 7.51212 48.7779 7.69338C48.5739 8.97012 48.3644 10.2482 48.1609 11.2317C48.0587 11.7257 47.9622 12.1248 47.874 12.4046C47.8426 12.5041 47.8157 12.5775 47.7943 12.6289L15.3129 30.9771L15.3129 30.9771L15.3087 30.9795C14.846 31.2448 14.6256 31.2822 14.3803 31.3237C14.2496 31.3459 14.1118 31.3692 13.9266 31.4289C13.7893 31.4731 13.6166 31.5504 13.4606 31.7028C13.3039 31.8558 13.2137 32.0356 13.1598 32.2064C13.0652 32.5055 13.05 32.8917 13.05 33.3258V33.3503L13.0516 33.3747L15.5475 71.529C15.4935 71.5942 15.4126 71.6822 15.2999 71.7943C15.0183 72.0741 14.6028 72.4402 14.0863 72.8703C13.0569 73.7273 11.6835 74.791 10.3132 75.8424C10.0378 76.0537 9.76251 76.2646 9.4903 76.4731C8.41473 77.2969 7.3881 78.0831 6.60091 78.7106C6.11385 79.0989 5.70205 79.4392 5.42276 79.6963ZM47.7527 12.7134C47.7526 12.7128 47.7558 12.7068 47.7627 12.697C47.7563 12.709 47.7528 12.7139 47.7527 12.7134ZM50.2464 3.60744C50.2639 3.5321 50.2812 3.46201 50.298 3.39762L50.1978 3.58545C50.2136 3.59335 50.2298 3.60069 50.2464 3.60744Z" fill="#DEEBF5" stroke="#0062AD" stroke-width="1.5"/>
<path d="M7.97051 27.4237L7.97168 27.423L48.9965 3.79819C48.9966 3.79816 48.9966 3.79812 48.9967 3.79808C49.6387 3.42997 50.039 3.49281 50.2317 3.60552C50.4266 3.71952 50.6786 4.04176 50.6786 4.77961V52.0305C50.6786 52.7627 50.4183 53.6252 49.9605 54.4199C49.5027 55.2146 48.8873 55.8718 48.2503 56.2371L48.2491 56.2378L7.22429 79.8626C6.58218 80.2309 6.18179 80.168 5.98909 80.0553C5.79421 79.9413 5.54221 79.619 5.54221 78.8812V31.6303C5.54221 30.8982 5.80243 30.0356 6.26025 29.2409C6.71811 28.4462 7.33345 27.789 7.97051 27.4237Z" fill="white" stroke="#0062AD" stroke-width="1.5"/>
<path d="M43.5877 50.1653V50.1921L43.5896 50.2189C43.5946 50.2893 43.5663 50.4478 43.4476 50.6498C43.3349 50.8415 43.1858 50.9943 43.0566 51.0758L12.5942 68.6185V33.5342C12.5942 33.3983 12.6439 33.2047 12.7537 33.0121C12.8646 32.8179 12.9971 32.6933 13.0951 32.6406L13.1049 32.6354L13.1146 32.6298L43.5877 15.081V50.1653Z" stroke="#0062AD" stroke-width="1.5"/>
<path d="M33 29C31.4805 28.728 29.9091 29.412 28 30.5C22.7013 33.5698 18 41.3605 18 47.5C18 49.2875 18.3377 50.412 19 51.5C20.5 52 22.9091 51.6419 24.8182 50.5539C30.1169 47.4841 34.4026 40.1012 34.4026 34.0005C34.4026 32.1742 34 30 33 29Z" fill="#0062AD"/>
<path d="M31.1299 36.0211C31.1299 36.9926 30.4675 38.1583 29.6104 38.6246C28.7922 39.0909 28.0909 38.7023 28.0909 37.7697C28.0909 36.7983 28.7533 35.6325 29.6104 35.1663C30.4286 34.6611 31.1299 35.0497 31.1299 36.0211Z" fill="white"/>
<path d="M19.5585 44.4144C20.3766 43.9481 21.0779 42.7823 21.0779 41.8109C21.0779 40.9949 20.5714 40.6063 19.9091 40.8006C19.4026 42.044 19.013 43.3652 18.7792 44.6087C19.013 44.6475 19.2857 44.5698 19.5585 44.4144Z" fill="white"/>
<path d="M32.3766 29.4931C35.5325 29.4931 37.6753 31.9799 37.6753 36.332C37.6753 42.4327 33.3896 49.8545 28.0909 52.9242C26.5325 53.818 25.0909 54.2454 23.8052 54.2454C20.6494 54.2454 18.5065 51.7585 18.5065 47.4064C18.5065 41.3058 22.7922 33.884 28.0909 30.8142C29.6494 29.8816 31.0909 29.4931 32.3766 29.4931ZM32.3766 28.6382C30.8961 28.6382 29.2987 29.1045 27.6623 30.0759C22.1299 33.2622 17.6494 41.0338 17.6494 47.3676C17.6494 52.0305 20.0649 55.0226 23.8052 55.0226C25.2857 55.0226 26.8831 54.5563 28.5195 53.5848C34.0519 50.3985 38.5325 42.627 38.5325 36.2931C38.5325 31.6302 36.1169 28.6382 32.3766 28.6382Z" fill="#0062AD"/>
</svg>
