<svg width="100" height="100" viewBox="0 0 100 100" fill="none" xmlns="http://www.w3.org/2000/svg">
<mask id="mask0_2955_1006" style="mask-type:alpha" maskUnits="userSpaceOnUse" x="0" y="0" width="100" height="100">
<rect width="100" height="100" fill="#D9D9D9"/>
</mask>
<g mask="url(#mask0_2955_1006)">
<path opacity="0.1294" d="M49.3191 94.3194C68.8254 94.3194 84.6383 85.1221 84.6383 73.7766C84.6383 62.4312 68.8254 53.2339 49.3191 53.2339C29.8129 53.2339 14 62.4312 14 73.7766C14 85.1221 29.8129 94.3194 49.3191 94.3194Z" fill="#0061AF"/>
<path d="M45.9941 55.0571L42.1328 52.4199L36.4281 60.6937L40.2894 63.3309L45.9941 55.0571Z" fill="#0061AF"/>
<path d="M25.923 72.3081L34.7714 59.4656L42.0441 64.4337L33.1956 77.2762C31.8182 79.2722 29.0745 79.7767 27.069 78.4058C25.0524 77.0349 24.5456 74.3041 25.923 72.3081Z" fill="#0061AF" stroke="#0061AF" stroke-width="1.5" stroke-miterlimit="10"/>
<path d="M56.1812 56.9653C68.6569 56.9653 78.7705 46.8994 78.7705 34.4826C78.7705 22.0658 68.6569 12 56.1812 12C43.7054 12 33.5918 22.0658 33.5918 34.4826C33.5918 46.8994 43.7054 56.9653 56.1812 56.9653Z" fill="#0061AF" stroke="#0061AF" stroke-width="1.5" stroke-miterlimit="10"/>
<path d="M47.371 55.8799L43.5098 53.2427L37.805 61.5165L41.6663 64.1537L47.371 55.8799Z" fill="#0061AF"/>
<path d="M27.2999 73.1308L36.1483 60.2883L43.421 65.2564L34.5726 78.099C33.1952 80.095 30.4514 80.5995 28.4459 79.2286C26.4294 77.8577 25.9225 75.1269 27.2999 73.1308Z" fill="white" stroke="#0061AF" stroke-width="1.5" stroke-miterlimit="10"/>
<path d="M57.5581 57.788C70.0339 57.788 80.1475 47.7222 80.1475 35.3054C80.1475 22.8886 70.0339 12.8228 57.5581 12.8228C45.0823 12.8228 34.9688 22.8886 34.9688 35.3054C34.9688 47.7222 45.0823 57.788 57.5581 57.788Z" fill="white" stroke="#0061AF" stroke-width="1.5" stroke-miterlimit="10"/>
<path d="M57.6249 52.8526C67.362 52.8526 75.2556 44.9964 75.2556 35.3052C75.2556 25.6141 67.362 17.7578 57.6249 17.7578C47.8877 17.7578 39.9941 25.6141 39.9941 35.3052C39.9941 44.9964 47.8877 52.8526 57.6249 52.8526Z" fill="white" stroke="#0061AF" stroke-width="1.5" stroke-miterlimit="10" stroke-linejoin="round"/>
<path d="M67 41L59.1314 33.1314C58.7354 32.7354 58.5373 32.5373 58.309 32.4632C58.1082 32.3979 57.8918 32.3979 57.691 32.4632C57.4627 32.5373 57.2646 32.7354 56.8686 33.1314L54.1314 35.8686C53.7354 36.2646 53.5373 36.4627 53.309 36.5368C53.1082 36.6021 52.8918 36.6021 52.691 36.5368C52.4627 36.4627 52.2646 36.2646 51.8686 35.8686L47 31M67 41H60M67 41V34" stroke="#0061AF" stroke-width="2" stroke-linecap="round" stroke-linejoin="round"/>
</g>
</svg>
