<svg width="100" height="100" viewBox="0 0 100 100" fill="none" xmlns="http://www.w3.org/2000/svg">
<mask id="mask0_2955_921" style="mask-type:alpha" maskUnits="userSpaceOnUse" x="0" y="0" width="100" height="100">
<rect width="100" height="100" fill="#D9D9D9"/>
</mask>
<g mask="url(#mask0_2955_921)">
<path d="M49.8114 91.0715C69.9247 91.0715 86.2297 81.8824 86.2297 70.547C86.2297 59.2116 69.9247 50.0225 49.8114 50.0225C29.6981 50.0225 13.3931 59.2116 13.3931 70.547C13.3931 81.8824 29.6981 91.0715 49.8114 91.0715Z" fill="#DEEBF5"/>
<path d="M46.3279 74.0336V43.3624C46.3279 42.1078 47.0807 40.986 48.2467 40.4989L73.9143 29.8865C73.9586 29.8718 74.0029 29.9013 74.0029 29.9456V63.0522V63.0669L47.7597 74.9635C47.0955 75.2734 46.3279 74.7716 46.3279 74.0336Z" fill="white" stroke="#0062AD" stroke-width="1.5" stroke-miterlimit="10"/>
<path d="M43.8038 40.2333L18.1215 29.5913C18.0772 29.5766 18.0772 29.5175 18.1215 29.488L45.7669 18.1228C46.1359 17.9752 46.5344 17.9752 46.8886 18.1228L73.7518 29.3109C74.0175 29.4142 74.0175 29.798 73.7518 29.9013L48.8665 40.2333C47.2429 40.9418 45.4126 40.927 43.8038 40.2333Z" fill="white" stroke="#0062AD" stroke-width="1.5" stroke-miterlimit="10"/>
<path d="M18.1515 29.6356C17.8858 29.5323 17.6053 29.7242 17.6053 30.0046L18.1219 62.2699C18.1219 63.1113 18.6385 63.864 19.4208 64.174L46.284 74.8011C46.3135 74.8159 46.343 74.7864 46.3282 74.7716L46.2544 42.6244C46.2544 41.9307 45.8412 41.3255 45.2065 41.0451L18.1515 29.6356Z" fill="white" stroke="#0062AD" stroke-width="1.5" stroke-miterlimit="10"/>
<path d="M57.3084 35.9973V48.8237L65.6773 45.4141V32.7944L57.3084 35.9973Z" fill="#0062AD" stroke="#0062AD" stroke-miterlimit="10"/>
<path d="M57.3381 36.2038L50.5928 33.0304L58.8731 29.5914L65.6775 32.7943L57.3381 36.2038Z" fill="#0062AD" stroke="#0062AD" stroke-miterlimit="10"/>
<path d="M31.5239 35.4216L60.1583 23.3627L47.3614 18.0934C46.6972 17.7834 45.9444 17.7834 45.2802 18.0638L19.1108 29.488C18.8894 29.5914 18.8894 29.9161 19.1108 30.0046L31.5239 35.4216Z" fill="#0062AD" stroke="#0062AD" stroke-miterlimit="10"/>
<path d="M74.0699 74.1399C80.1837 74.1399 85.1399 69.1838 85.1399 63.07C85.1399 56.9562 80.1837 52 74.0699 52C67.9561 52 62.9999 56.9562 62.9999 63.07C62.9999 69.1838 67.9561 74.1399 74.0699 74.1399Z" fill="#0062AD"/>
<path d="M83.8083 64.375L81.9755 62.5417L80.1416 64.375M82.25 63C82.25 67.5563 78.5563 71.25 74 71.25C69.4437 71.25 65.75 67.5563 65.75 63C65.75 58.4437 69.4437 54.75 74 54.75C77.0268 54.75 79.6728 56.38 81.1083 58.81M74 58.4167V63L76.75 64.8333" stroke="white" stroke-width="1.5" stroke-linecap="round" stroke-linejoin="round"/>
</g>
</svg>
