<svg width="100" height="100" viewBox="0 0 100 100" fill="none" xmlns="http://www.w3.org/2000/svg">
<mask id="mask0_2955_897" style="mask-type:alpha" maskUnits="userSpaceOnUse" x="0" y="0" width="100" height="100">
<rect width="100" height="100" fill="#D9D9D9"/>
</mask>
<g mask="url(#mask0_2955_897)">
<path opacity="0.1294" d="M44.1964 91.0713C64.6606 91.0713 81.25 81.5284 81.25 69.7566C81.25 57.9848 64.6606 48.4419 44.1964 48.4419C23.7323 48.4419 7.14288 57.9848 7.14288 69.7566C7.14288 81.5284 23.7323 91.0713 44.1964 91.0713Z" fill="#0061AF"/>
<path d="M59.5093 4.69934L54.4477 1.23029C54.4477 1.23029 53.5959 0.514258 52.2873 1.16856C50.991 1.83521 29.9051 14.1065 29.9051 14.1065C29.9051 14.1065 25.8929 15.8349 25.8929 19.9706C25.8929 24.1063 25.9916 78.5247 25.9916 78.5247C25.9916 78.5247 25.9916 79.9691 27.1274 80.6357C28.2015 81.253 32.3372 82.8456 33.3001 83.0184C34.0532 83.1542 34.9174 82.4505 34.9174 82.4505C34.9174 82.4505 33.2013 83.4875 32.0656 82.3641C31.473 81.7715 31.6335 80.2654 31.6335 79.3518L31.6458 22.6001C31.6458 22.6001 31.7076 18.9089 34.9914 17.378C38.2753 15.8472 57.7439 4.6623 57.7439 4.6623C57.7439 4.6623 58.6328 4.13145 59.5093 4.69934Z" fill="white" stroke="#0061B1" stroke-width="1.5" stroke-miterlimit="10"/>
<path d="M31.6466 81.179V22.8471C31.6466 20.6249 32.8441 18.5879 34.7823 17.5015L57.7447 4.66236C58.9052 4.00805 60.3372 4.85988 60.3249 6.18084L60.0533 65.167C60.0409 66.7473 59.2015 68.204 57.8435 68.9941L34.3996 82.7592C33.1774 83.4752 31.6466 82.5987 31.6466 81.179Z" fill="white" stroke="#0061B1" stroke-width="1.5" stroke-miterlimit="10"/>
<path d="M37.8425 15.7854L39.2499 16.736C39.8548 17.1434 40.6326 17.1804 41.2622 16.8224L50.5582 11.5633C51.2743 11.1559 51.7804 10.4522 51.9286 9.63741L52.2742 7.72388L37.8425 15.7854Z" fill="#0061B1" stroke="#0061B1" stroke-width="0.5" stroke-miterlimit="10"/>
<path d="M41.8805 15.1313L41.7941 14.9708C41.72 14.835 41.7694 14.6745 41.9052 14.6004L49.3248 10.5511C49.4606 10.4771 49.621 10.5264 49.6951 10.6622L49.7815 10.8227C49.8556 10.9585 49.8062 11.119 49.6704 11.1931L42.2509 15.2424C42.1151 15.3164 41.9546 15.2671 41.8805 15.1313Z" fill="white"/>
<path d="M27.6701 30.0445V24.8594C27.6701 24.3533 28.0899 23.9335 28.596 23.9335C29.1022 23.9335 29.5219 24.3533 29.5219 24.8594V30.0445C29.5219 30.5507 29.1022 30.9704 28.596 30.9704C28.0775 30.9704 27.6701 30.5507 27.6701 30.0445Z" fill="#0061B1"/>
<path d="M27.6701 38.0072V32.8221C27.6701 32.316 28.0899 31.8962 28.596 31.8962C29.1022 31.8962 29.5219 32.316 29.5219 32.8221V38.0072C29.5219 38.5134 29.1022 38.9331 28.596 38.9331C28.0775 38.9331 27.6701 38.5134 27.6701 38.0072Z" fill="#0061B1"/>
<rect x="45.7501" y="23.75" width="38.5" height="38.5" rx="3.25" fill="white" stroke="#0061B1" stroke-width="1.5"/>
<path d="M81.3621 43.2472H49.0001V53H81.3621V43.2472Z" fill="#0061AF"/>
<path d="M72.6136 35.2125C72.6136 34.4689 74.0313 34.7079 74.4627 34.8773L74.5953 33.6399C73.1572 33.2062 70.9229 33.53 70.9284 35.3747C70.8988 37.1954 73.6497 36.9473 73.6497 37.8135C73.6497 38.7278 71.4924 38.2592 71.0258 37.9817L70.7792 39.2197C72.3818 39.9087 75.4212 39.7562 75.3405 37.6862C75.3127 35.6786 72.613 36.0337 72.613 35.2119M68.9504 35.8553C68.9504 34.2406 66.7148 34.219 66.7314 35.8553H68.9504ZM66.7179 37.1047C66.8356 38.5343 69.1218 38.2869 70.108 37.9817L70.3546 39.2191C68.0419 40.0817 64.955 39.5195 64.955 36.5881C64.955 32.68 70.6874 32.2559 70.6874 36.3851C70.6875 36.6266 70.6669 36.8677 70.6258 37.1059L66.7179 37.1047ZM74.7568 34.8773H75.6394V37.3342C75.6394 38.6257 75.9729 39.5886 77.4374 39.5886C77.8529 39.5877 78.2646 39.5109 78.6511 39.3621V37.9805C77.7764 38.1397 77.3505 38.1938 77.3505 37.0572V32H75.6394V33.6393H74.8899L74.7568 34.8773ZM77.6421 34.8773H78.6498L79.0012 34.2532L78.6548 33.6399H77.6414L77.6421 34.8773ZM55.2667 39.4672L56.759 33.6405L57.1584 39.5904H58.8331L58.3227 32.0018H55.7056L54.4235 37.1017L53.142 32.0018H50.5273L50.017 39.5904H51.6917L52.0917 33.6405L53.584 39.4672H55.2667Z" fill="#0061AF"/>
<path d="M62.8137 35.8867C62.8137 34.2846 60.6323 34.2632 60.6485 35.8867H62.8137ZM60.6359 37.1265C60.7502 38.545 62.9815 38.2994 63.9439 37.9967L64.1844 39.2245C61.9278 40.0803 58.9158 39.5225 58.9158 36.6139C58.9158 32.7362 64.5092 32.3154 64.5092 36.4124C64.5093 36.6521 64.4892 36.8913 64.4491 37.1277L60.6359 37.1265Z" fill="#E40138"/>
<path d="M79.5085 32L80.781 34.1455L79.5085 36.3012H78.2385L79.511 34.1455L78.2385 32H79.5085Z" fill="#E40138"/>
<path d="M57.1133 46.1039V50.1414H56.18V46.8631H54.3489V50.1414H53.4157V46.1039H57.1133Z" fill="white"/>
<path d="M57.8375 48.1238C57.8375 46.9239 58.7787 46.0355 60.0574 46.0355C61.336 46.0355 62.2773 46.9183 62.2773 48.1238C62.2773 49.3292 61.3328 50.2116 60.0593 50.2116C58.7858 50.2116 57.8375 49.3232 57.8375 48.1238ZM61.3266 48.1238C61.3266 47.3567 60.7821 46.8317 60.056 46.8317C59.3298 46.8317 58.7853 47.3567 58.7853 48.1238C58.7853 48.8909 59.3303 49.4154 60.056 49.4154C60.7817 49.4154 61.3266 48.8909 61.3266 48.1238Z" fill="white"/>
<path d="M68.3573 46.1039V50.1414H63.0018V46.1039H63.935V49.3822H65.216V46.1039H66.1487V49.3822H67.4241V46.1039H68.3573Z" fill="white"/>
<path d="M72.4663 46.8664H71.166V50.1446H70.2389V46.8664H68.948V46.1039H72.4663V46.8664Z" fill="white"/>
<path d="M75.6012 49.2773H73.7187L73.3592 50.1423H72.3963L74.2044 46.1039H75.132L76.9462 50.1414H75.9607L75.6012 49.2773ZM75.3071 48.5678L74.6637 47.0223L74.0204 48.5678H75.3071Z" fill="white"/>
</g>
</svg>
