<svg width="100" height="100" viewBox="0 0 100 100" fill="none" xmlns="http://www.w3.org/2000/svg">
<mask id="mask0_2955_1032" style="mask-type:alpha" maskUnits="userSpaceOnUse" x="0" y="0" width="100" height="100">
<rect width="100" height="100" fill="#D9D9D9"/>
</mask>
<g mask="url(#mask0_2955_1032)">
<path d="M50.9215 95.0008C73.4483 95.0008 91.71 84.709 91.71 72.0133C91.71 59.3177 73.4483 49.0258 50.9215 49.0258C28.3946 49.0258 10.133 59.3177 10.133 72.0133C10.133 84.709 28.3946 95.0008 50.9215 95.0008Z" fill="#DEEBF5"/>
<path d="M20.16 99.8301L38.04 99.7701L37.82 86.2601C37.61 80.7201 34.03 75.0401 29.03 72.6301L21.78 62.3301C20.08 59.2401 16.28 57.8301 14.71 62.0201L14.71 61.9201L14.82 42.1701C14.83 40.0201 13.09 38.2701 10.93 38.2701C8.78001 38.2701 7.04001 40.0101 7.04001 42.1501L7.00001 66.4501C7.00001 68.5501 7.53001 70.6101 8.54001 72.4501L20.18 93.6501L20.16 99.8301Z" fill="white"/>
<path d="M20.16 99.7802L20.16 93.5802L8.32 71.9802C7.54 70.5602 7.13 68.9802 7.13 67.3602L7.01 41.9101C7 39.7701 8.72 38.0202 10.87 38.0002C13.04 37.9802 14.81 39.7402 14.8 41.9202L14.72 62.3701" stroke="#0062AD" stroke-width="1.5" stroke-miterlimit="10"/>
<path d="M38.04 99.7701L37.86 87.2301C37.77 81.1101 34.41 75.5101 29.05 72.5501L20.78 60.3307C19.46 58.9007 17.23 58.8007 15.78 60.1107C14.32 61.4307 14.21 63.6807 15.53 65.1407L24.9 78.7801" stroke="#0062AD" stroke-width="1.5" stroke-miterlimit="10"/>
<path d="M60.4785 76.8299V43.154C60.4785 41.7765 61.3087 40.5448 62.5947 40.01L90.9035 28.358C90.9524 28.3418 91.0012 28.3742 91.0012 28.4228V64.7727V64.7889L62.0575 77.8509C61.325 78.1912 60.4785 77.6402 60.4785 76.8299Z" fill="white" stroke="#0062AD" stroke-width="1.5" stroke-miterlimit="10"/>
<path d="M57.5404 39.2265L29.0368 27.6241C28.9877 27.6081 28.9877 27.5437 29.0368 27.5115L59.7191 15.1207C60.1286 14.9598 60.5709 14.9598 60.9641 15.1207L90.7782 27.3184C91.073 27.431 91.073 27.8494 90.7782 27.9621L63.1592 39.2265C61.3572 39.9989 59.3259 39.9828 57.5404 39.2265Z" fill="white" stroke="#0062AD" stroke-width="1.5" stroke-miterlimit="10"/>
<path d="M29.5983 27.4315C29.3072 27.3159 28.9999 27.5305 28.9999 27.8442L29.566 63.9326C29.566 64.8736 30.132 65.7155 30.9892 66.0622L60.4237 77.9486C60.4561 77.9651 60.4884 77.9321 60.4722 77.9156L60.3914 41.9593C60.3914 41.1834 59.9385 40.5065 59.2431 40.1928L29.5983 27.4315Z" fill="white" stroke="#0062AD" stroke-width="1.5" stroke-miterlimit="10"/>
<path d="M74.7851 34.8231V49.3381L83.3696 45.4797V31.2152L74.7851 34.8231Z" fill="#0062AD" stroke="#0062AD" stroke-miterlimit="10"/>
<path d="M74.4031 35.0305L67.1523 31.3684L76.0532 27.3998L83.3675 31.0959L74.4031 35.0305Z" fill="#0062AD" stroke="#0062AD" stroke-miterlimit="10"/>
<path d="M44.7375 34.0767L75.7372 20.9796L61.5211 15.2566C60.7833 14.92 59.947 14.92 59.2092 15.2246L30.1375 27.6324C29.8916 27.7446 29.8916 28.0973 30.1375 28.1934L44.7375 34.0767Z" fill="#0062AD" stroke="#0062AD" stroke-miterlimit="10"/>
</g>
</svg>
