<svg width="100" height="100" viewBox="0 0 100 100" fill="none" xmlns="http://www.w3.org/2000/svg">
<path d="M57.8467 91.0716C77.96 91.0716 94.265 81.8824 94.265 70.547C94.265 59.2117 77.96 50.0225 57.8467 50.0225C37.7334 50.0225 21.4284 59.2117 21.4284 70.547C21.4284 81.8824 37.7334 91.0716 57.8467 91.0716Z" fill="#DEEBF5"/>
<path d="M31.1227 83.5921L30.8766 49.1472L81.5598 20.3611L81.8059 54.806L31.1227 83.5921Z" fill="#0062AD" stroke="#0062AD" stroke-width="1.5" stroke-miterlimit="10" stroke-linejoin="round"/>
<path d="M8.97913 70.4144L8.7331 35.9695L30.8762 49.1471L31.1223 83.592L8.97913 70.4144Z" fill="#0062AD" stroke="#0062AD" stroke-width="1.5" stroke-miterlimit="10" stroke-linejoin="round"/>
<path d="M36.2795 51.1351L36.2106 46.116L75.7828 23.6382V28.7459L36.2795 51.1351Z" fill="white" stroke="#0062AD" stroke-width="1.5" stroke-miterlimit="10" stroke-linejoin="round"/>
<path d="M48.3837 73.79L48.1377 44.4134L50.9228 42.8388L51.2475 72.1563L48.3837 73.79Z" fill="white" stroke="#0062AD" stroke-width="1.5" stroke-miterlimit="10" stroke-linejoin="round"/>
<path d="M60.7653 66.7534L60.5389 37.3866L63.4717 35.9695L63.7079 65.0803L60.7653 66.7534Z" fill="white" stroke="#0062AD" stroke-width="1.5" stroke-miterlimit="10" stroke-linejoin="round"/>
<path d="M13.8397 43.8524V39.0104L25.6986 46.0667L25.6494 51.135L13.8397 43.8524Z" fill="white" stroke="#0062AD" stroke-width="1.5" stroke-miterlimit="10" stroke-linejoin="round"/>
<path d="M13.8397 54.4419V43.8525L25.6494 51.1352L25.6986 61.8229L13.8397 54.4419Z" fill="white" stroke="#0062AD" stroke-width="1.5" stroke-miterlimit="10" stroke-linejoin="round"/>
<path d="M13.8397 73.3077V54.4417L25.6986 61.8228V80.364L13.8397 73.3077Z" fill="#DEEBF4" stroke="#0062AD" stroke-width="1.5" stroke-miterlimit="10" stroke-linejoin="round"/>
<path d="M36.2106 61.8227L36.2795 51.1349L48.1384 44.4133L48.2269 55.0813L36.2106 61.8227Z" fill="white" stroke="#0062AD" stroke-width="1.5" stroke-miterlimit="10" stroke-linejoin="round"/>
<path d="M63.5588 46.3915L63.5489 35.7136L75.7818 28.7459V39.4041L63.5588 46.3915Z" fill="white" stroke="#0062AD" stroke-width="1.5" stroke-miterlimit="10" stroke-linejoin="round"/>
<path d="M36.7027 80.3642L36.2106 61.823L48.2269 55.0817L48.3844 73.7902L36.7027 80.3642Z" fill="#DEEBF4" stroke="#0062AD" stroke-width="1.5" stroke-miterlimit="10" stroke-linejoin="round"/>
<path d="M63.7064 65.0805L63.5489 46.4409L75.7818 39.4043V58.2309L63.7064 65.0805Z" fill="#DEEBF4" stroke="#0062AD" stroke-width="1.5" stroke-miterlimit="10" stroke-linejoin="round"/>
<path d="M51.0406 53.1135L50.9225 42.8391L60.5376 37.387L60.6163 47.5728L51.0406 53.1135Z" fill="white" stroke="#0062AD" stroke-width="1.5" stroke-miterlimit="10" stroke-linejoin="round"/>
<path d="M30.8764 49.147V43.7342L83.0358 14.4561V19.3768L30.8764 49.147Z" fill="#DEEBF4" stroke="#0062AD" stroke-width="1.5" stroke-miterlimit="10" stroke-linejoin="round"/>
<path d="M30.8762 49.1471V43.7343L6.02664 29.4643L6.34156 34.4342L30.8762 49.1471Z" fill="#DEEBF4" stroke="#0062AD" stroke-width="1.5" stroke-miterlimit="10" stroke-linejoin="round"/>
<path d="M57.6933 4.36874V1.66235L83.0349 14.4562L80.4466 15.9029L57.6933 4.36874Z" fill="#0062AD" stroke="#0062AD" stroke-width="1.5" stroke-miterlimit="10" stroke-linejoin="round"/>
<path d="M8.60519 30.9405L6.02675 29.4643L57.6941 1.66235V4.36874L8.60519 30.9405Z" fill="#0062AD" stroke="#0062AD" stroke-width="1.5" stroke-miterlimit="10" stroke-linejoin="round"/>
<path d="M35.7418 46.3913V22.7769L77.0453 0.756836V22.7769L35.7418 46.3913Z" fill="#DEEBF4" stroke="#0062AD" stroke-width="1.5" stroke-miterlimit="10" stroke-linejoin="round"/>
</svg>
