<svg width="100" height="100" viewBox="0 0 100 100" fill="none" xmlns="http://www.w3.org/2000/svg">
<mask id="mask0_2956_64" style="mask-type:alpha" maskUnits="userSpaceOnUse" x="0" y="0" width="100" height="100">
<rect width="100" height="100" fill="#D9D9D9"/>
</mask>
<g mask="url(#mask0_2956_64)">
<path d="M49.8114 91.0715C69.9246 91.0715 86.2297 81.8824 86.2297 70.547C86.2297 59.2116 69.9246 50.0225 49.8114 50.0225C29.6981 50.0225 13.3931 59.2116 13.3931 70.547C13.3931 81.8824 29.6981 91.0715 49.8114 91.0715Z" fill="#DEEBF5"/>
<path d="M35.2589 30L22 22.08L48.8939 6L62.2589 14.4975L35.2589 30Z" stroke="#0061AF" stroke-width="1.5" stroke-miterlimit="10" stroke-linejoin="round"/>
<path d="M62.2589 14.4976L61.6696 61.9351" stroke="#0061AF" stroke-width="1.5" stroke-miterlimit="10" stroke-linejoin="round"/>
<path d="M35.2589 37.2768V30.5L62.2589 14.4976V21.8637L35.2589 37.2768Z" stroke="#0061AF" stroke-miterlimit="10" stroke-linejoin="round"/>
<path d="M35.2589 57.8482V44L62.2588 28.6405L62.0702 43.078L35.2589 57.8482Z" stroke="#0061AF" stroke-miterlimit="10" stroke-linejoin="round"/>
<path d="M35.2589 77.5001V58.4779L61.8935 43.1724L61.6695 61.8056L35.2589 77.5001Z" fill="white" stroke="#0061AF" stroke-miterlimit="10" stroke-linejoin="round"/>
<path d="M43.8613 53.3905V72.9194" stroke="#0061AF" stroke-miterlimit="10"/>
<path d="M35.7057 36.5958V57.8101" stroke="#0061AF" stroke-miterlimit="10" stroke-linejoin="round"/>
<path d="M49.3771 28.9939V50.3968" stroke="#0061AF" stroke-miterlimit="10" stroke-linejoin="round"/>
<path d="M47.0553 23.2425V30.1372" stroke="#0061AF" stroke-miterlimit="10" stroke-linejoin="round"/>
<path d="M55.1992 18.9408V25.8354" stroke="#0061AF" stroke-miterlimit="10" stroke-linejoin="round"/>
<path d="M22.2589 69.6968L22.2589 22L35.2589 30V77.5L22.2589 69.6968Z" fill="white" stroke="#0061AF" stroke-width="1.5" stroke-miterlimit="10" stroke-linejoin="round"/>
<path d="M35.2589 44.3482V30.5L62.2589 14.4976L62.0703 28.9351L35.2589 44.3482Z" stroke="#0061AF" stroke-miterlimit="10" stroke-linejoin="round"/>
<path d="M35.2589 77.5V30.4868L62.2589 14.4976L61.6696 61.9351L35.2589 77.5Z" stroke="#0061AF" stroke-width="1.5" stroke-miterlimit="10" stroke-linejoin="round"/>
<path d="M35.7176 57.9987L35.7058 43.9148L49.3772 36.1244V50.2673L35.7176 57.9987Z" fill="white" stroke="#0061AF" stroke-miterlimit="10" stroke-linejoin="round"/>
<g clip-path="url(#clip0_2956_64)">
<path d="M69.7435 76.3483C69.7435 76.2788 69.7435 76.1918 69.7435 76.1223C69.7957 75.3398 69.5001 74.6964 69.2045 73.9661C69.1001 73.7052 68.9784 73.4096 68.7524 73.2357C68.2307 72.8358 67.4308 73.1836 67.1004 73.7574C66.9439 74.0182 66.8744 74.3138 66.7353 74.5921C66.4744 75.1137 65.9528 75.7223 65.3442 75.7571C64.5095 75.7919 63.5705 75.5137 62.7184 75.4615C62.3881 75.4441 62.0403 75.4267 61.7447 75.5484C61.0143 75.844 60.8057 77.0091 61.0665 77.6525C61.223 78.0524 61.5882 78.348 61.9881 78.5393C62.5793 78.8175 63.3444 78.974 63.9878 78.9393C64.6834 78.8871 65.3442 78.9566 65.9875 79.2523C67.083 79.7739 68.3524 80.5043 69.4653 79.4957C69.7609 79.2349 69.9 78.8175 69.9348 78.435C69.987 77.722 69.7609 77.0439 69.7435 76.3483Z" fill="#0061AF"/>
<path d="M75.7427 74.7485C75.6557 74.4877 75.4645 74.5572 75.2558 74.4877C74.995 74.4181 74.7515 74.2269 74.5602 74.053C74.2994 73.8269 74.0907 73.5661 73.8473 73.3226C73.2387 72.6792 72.491 72.1576 71.6911 71.7924C71.4476 71.6707 71.1868 71.5664 70.9086 71.549C70.3869 71.4968 69.9 71.7403 69.4305 71.9663C68.9784 72.1924 68.9784 72.4706 68.961 72.9227C68.9437 73.1314 68.961 73.3574 69.0132 73.5661C69.1175 73.9834 69.4132 74.3312 69.7088 74.6442C70.0565 75.0093 70.4217 75.3571 70.8564 75.5832C71.2216 75.7745 71.6215 75.8788 71.9693 76.1048C72.1954 76.2613 72.3866 76.4526 72.5431 76.6787C72.6823 76.8526 72.7692 77.0786 72.9605 77.183C73.343 77.4264 73.7951 77.6351 74.2472 77.6698C75.1515 77.7394 75.8992 77.183 75.934 76.2613C75.9513 75.931 75.8818 75.6006 75.8296 75.2702C75.7949 75.0267 75.7949 74.8702 75.7427 74.7485Z" fill="#0061AF"/>
<path d="M69.1002 51.7953C69.2914 51.5518 69.6392 51.4823 69.9348 51.4301C71.2911 51.1867 72.6127 50.6476 73.9516 50.3346C74.5429 50.1955 75.1515 50.0912 75.7601 50.0738L77.0816 48.874C77.2381 50.0216 77.3425 51.1867 77.2033 52.3517C76.9077 54.8557 76.2643 60.6636 76.0905 63.4284C75.9514 65.5325 75.9687 67.6539 75.9513 69.7579C75.9513 70.6622 75.8818 71.5838 76.0035 72.4706C76.1078 73.2879 76.1252 74.4008 75.7253 75.1485C75.4123 75.7397 74.8037 76.157 74.1429 76.2266C73.4821 76.3135 72.7866 76.0527 72.3171 75.5832C72.0215 75.2876 72.0215 74.6964 71.9867 74.2964C71.9519 73.9313 71.9345 73.5661 71.9171 73.2183C71.8824 72.175 71.8824 71.1317 71.8476 70.0883C71.8128 68.9928 71.7606 67.8799 71.6737 66.7845C71.6215 66.0541 71.5694 65.3412 71.4998 64.6108C71.465 64.2109 71.4303 63.811 71.3955 63.411C71.3607 63.0632 71.4303 62.4025 71.2738 62.1069C70.5782 60.8375 69.987 59.4811 69.8826 58.7334C69.7435 57.6727 69.7435 56.5946 69.6392 55.5165C69.5349 54.5427 69.1871 53.6385 69.0132 52.6647C68.961 52.3865 68.9263 52.0561 69.1002 51.7953Z" fill="#0061AF"/>
<path d="M66.4397 65.1673C66.4397 65.2195 66.4397 65.2542 66.4397 65.3064C66.4744 67.4974 66.3179 69.671 66.2658 71.8446C66.231 73.3053 65.9354 77.2004 67.2569 77.6872C67.9003 77.9307 69.2219 78.122 69.5697 77.496C70.9086 75.1485 71.3085 66.9931 71.4129 64.6804C71.4303 64.1066 71.3781 64.3152 71.4129 63.724C71.4476 63.2545 71.6215 62.5937 71.4998 62.1416C71.239 61.2722 70.1087 61.7765 69.5523 61.9677C68.735 62.246 67.7264 62.3851 67.0309 62.9241C66.3179 63.4806 66.4049 64.3674 66.4397 65.1673Z" fill="#0061AF"/>
<path d="M66.2658 50.0564C66.9961 49.3956 69.2566 50.2129 70.1087 50.2477C70.8912 50.2999 71.6737 50.2999 72.4736 50.2999C72.8214 50.2999 73.2735 50.3694 73.6039 50.2825C73.8995 50.2129 74.1255 49.9869 74.4385 49.9173C74.682 49.8651 75.3601 49.3609 75.5514 49.5174C75.847 49.7608 75.4471 50.7346 75.3601 51.0997C74.6472 54.3862 72.4736 57.1511 71.8302 60.4375C71.552 61.8113 71.6215 63.2371 71.465 64.6456C71.4476 64.8195 71.4303 64.9934 71.3607 65.1499C71.239 65.4281 70.9955 65.6194 70.7347 65.7933C70.1087 66.2106 69.4131 66.4715 68.6828 66.6106C68.3003 66.6801 67.9003 66.7149 67.5004 66.6975C67.2048 66.6801 66.8222 66.541 66.544 66.6975C66.3701 65.5325 66.4918 64.3153 66.2484 63.1676C65.9875 61.9504 66.0397 60.6462 66.0049 59.4116C65.918 56.6816 65.8658 53.9515 65.9354 51.2215C65.9528 50.8737 65.9528 50.5259 66.144 50.2303C66.1788 50.1434 66.231 50.0912 66.2658 50.0564Z" fill="#0061AF"/>
<path d="M64.979 36.2671C64.9616 36.5801 65.0138 37.1887 65.3094 37.3974C65.5528 37.5712 66.1093 37.5017 66.3875 37.5365C67.2743 37.6234 68.1785 37.6756 69.0654 37.7277C69.4653 37.7625 69.8826 37.7799 70.2826 37.7973C71.465 37.8321 72.6475 37.7625 73.8125 37.5712C74.2646 37.5017 75.0123 37.38 75.3601 37.0844C75.7079 36.7887 75.7427 36.3019 75.6905 35.8324C75.5862 34.9803 75.1688 34.1456 74.3516 33.8153C73.5343 33.4849 72.7344 33.624 71.9345 33.7283C70.0739 33.9718 68.2307 34.3195 66.4223 34.789C66.1093 34.876 65.7789 34.9629 65.5007 35.1542C65.2224 35.3802 65.0138 35.815 64.979 36.2671Z" fill="white"/>
<path d="M57.7974 41.0142C57.2236 40.0578 55.8673 38.6841 55.0326 38.6319C54.0588 38.5798 53.9371 38.4407 53.6937 38.6146C53.085 39.0667 53.7458 39.2232 53.7458 39.4144C53.7458 39.6231 53.5719 39.5535 53.3285 40.0057C53.1198 40.3708 53.4502 40.336 53.4676 40.4925C53.485 40.6143 53.3285 40.6664 53.3807 40.7882C53.398 40.8403 53.4502 40.8577 53.4676 40.9099C53.5024 41.049 53.3633 41.0316 53.5024 41.3968C53.6415 41.7445 54.3196 41.1185 55.0152 41.588C55.1891 41.7098 55.3282 41.8489 55.5021 41.988C55.6934 42.1445 55.9194 42.2836 56.1455 42.3879C56.3368 42.4749 56.7367 42.6314 56.8236 42.7009L57.7974 41.0142Z" fill="#0061AF"/>
<path d="M65.792 35.247L65.792 35.247V35.2411V35.2409V35.2407V35.2405V35.2403V35.2401V35.2399V35.2397V35.2395V35.2393V35.2391V35.2389V35.2387V35.2385V35.2383V35.2381V35.2379V35.2377V35.2375V35.2373V35.2371V35.2369V35.2367V35.2365V35.2363V35.2362V35.236V35.2358V35.2356V35.2354V35.2352V35.235V35.2348V35.2346V35.2344V35.2342V35.234V35.2338V35.2337V35.2335V35.2333V35.2331V35.2329V35.2327V35.2325V35.2323V35.2321V35.232V35.2318V35.2316V35.2314V35.2312V35.231V35.2308V35.2307V35.2305V35.2303V35.2301V35.2299V35.2297V35.2296V35.2294V35.2292V35.229V35.2288V35.2287V35.2285V35.2283V35.2281V35.2279V35.2277V35.2276V35.2274V35.2272V35.227V35.2269V35.2267V35.2265V35.2263V35.2261V35.226V35.2258V35.2256V35.2254V35.2253V35.2251V35.2249V35.2247V35.2246V35.2244V35.2242V35.224V35.2239V35.2237V35.2235V35.2233V35.2232V35.223V35.2228V35.2227V35.2225V35.2223V35.2221V35.222V35.2218V35.2216V35.2215V35.2213V35.2211V35.2209V35.2208V35.2206V35.2204V35.2203V35.2201V35.2199V35.2198V35.2196V35.2194V35.2193V35.2191V35.2189V35.2188V35.2186V35.2184V35.2183V35.2181V35.2179V35.2178V35.2176V35.2174V35.2173V35.2171V35.2169V35.2168V35.2166V35.2164V35.2163V35.2161V35.216V35.2158V35.2156V35.2155V35.2153V35.2151V35.215V35.2148V35.2146V35.2145V35.2143V35.2142V35.214V35.2138V35.2137V35.2135V35.2134V35.2132V35.213V35.2129V35.2127V35.2126V35.2124V35.2122V35.2121V35.2119V35.2118V35.2116V35.2114V35.2113V35.2111V35.211V35.2108V35.2106V35.2105V35.2103V35.2102V35.21V35.2099V35.2097V35.2095V35.2094V35.2092V35.2091V35.2089V35.2088V35.2086V35.2084V35.2083V35.2081V35.208V35.2078V35.2077V35.2075V35.2073V35.2072V35.207V35.2069V35.2067V35.2066V35.2064V35.2063V35.2061V35.2059V35.2058V35.2056V35.2055V35.2053V35.2052V35.205V35.2049V35.2047V35.2046V35.2044V35.2042V35.2041V35.2039V35.2038V35.2036V35.2035V35.2033V35.2032V35.203V35.2029V35.2027V35.2026V35.2024V35.2022V35.2021V35.2019V35.2018V35.2016V35.2015V35.2013V35.2012V35.201V35.2009V35.2007V35.2006V35.2004V35.2003V35.2001V35.1999V35.1998V35.1996V35.1995V35.1993V35.1992V35.199V35.1989V35.1987V35.1986V35.1984V35.1983V35.1981V35.198V35.1978V35.1977V35.1975V35.1973V35.1972V35.197V35.1969V35.1967V35.1966V35.1964V35.1963V35.1961V35.196V35.1958V35.1957V35.1955V35.1954V35.1952V35.1951V35.1949V35.1947V35.1946V35.1944V35.1943V35.1941V35.194V35.1938V35.1937V35.1935V35.1934V35.1932V35.1931V35.1929V35.1928V35.1926V35.1924V35.1923V35.1921V35.192V35.1918V35.1917V35.1915V35.1914V35.1912V35.1911V35.1909V35.1908V35.1906V35.1904V35.1903V35.1901V35.19V35.1898V35.1897V35.1895V35.1894V35.1892V35.1891V35.1889V35.1887V35.1886V35.1884V35.1883V35.1881V35.188V35.1878V35.1877V35.1875V35.1873V35.1872V35.187V35.1869V35.1867V35.1866V35.1864V35.1862V35.1861V35.1859V35.1858V35.1856V35.1855V35.1853V35.1851V35.185V35.1848V35.1847V35.1845V35.1843V35.1842V35.184V35.1839V35.1837V35.1836V35.1834V35.1832V35.1831V35.1829V35.1828V35.1826V35.1824V35.1823V35.1821V35.182V35.1818V35.1816V35.1815V35.1813V35.1811V35.181V35.1808V35.1807V35.1805V35.1803V35.1802V35.18V35.1798V35.1797V35.1795V35.1794V35.1792V35.179V35.1789V35.1787V35.1785V35.1784V35.1782V35.178V35.1779V35.1777V35.1775V35.1774V35.1772V35.1771V35.1769V35.1767V35.1766V35.1764V35.1762V35.1761V35.1759V35.1757V35.1755V35.1754V35.1752V35.175V35.1749V35.1747V35.1745V35.1744V35.1742V35.174V35.1739V35.1737V35.1735V35.1733V35.1732V35.173V35.1728V35.1727V35.1725V35.1723V35.1721V35.172V35.1718V35.1716V35.1714V35.1713V35.1711V35.1709V35.1708V35.1706V35.1704V35.1702V35.1701V35.1699V35.1697V35.1695V35.1693V35.1692V35.169V35.1688V35.1686V35.1685V35.1683V35.1681V35.1679V35.1677V35.1676V35.1674V35.1672V35.167V35.1668V35.1667V35.1665V35.1663V35.1661V35.1659V35.1657V35.1656V35.1654V35.1652V35.165V35.1648V35.1646V35.1645V35.1643V35.1641V35.1639V35.1637V35.1635V35.1633V35.1632V35.1631C65.7931 35.1314 65.7942 35.1001 65.7952 35.0692C65.8024 34.8518 65.8091 34.6526 65.837 34.4576C65.8676 34.2429 65.9198 34.0725 66.0014 33.9399C66.0018 33.9396 66.0022 33.9391 66.0027 33.9385C66.0108 33.9298 66.0425 33.8957 66.1168 33.8339C66.2023 33.7628 66.3197 33.675 66.4676 33.5732C66.7628 33.3701 67.1591 33.1254 67.6194 32.8664C68.541 32.348 69.6934 31.7873 70.7651 31.3991C71.2248 31.2343 71.6873 31.0328 72.1343 30.838C72.2133 30.8036 72.2918 30.7694 72.3697 30.7357C72.8976 30.507 73.4061 30.2955 73.9116 30.1451C74.9108 29.8477 75.8491 29.8027 76.8017 30.3385L76.8018 30.3386C77.9865 31.0045 78.2724 32.3365 78.0818 34.208C77.9883 35.1261 77.785 36.1184 77.5589 37.135C77.5119 37.3464 77.4638 37.5591 77.4157 37.7723C77.2346 38.5738 77.0521 39.3815 76.9195 40.1454C76.6877 41.4564 76.6472 42.3489 76.6339 43.1293C76.6317 43.2542 76.6303 43.375 76.6288 43.4932C76.6213 44.1133 76.6146 44.6636 76.5169 45.3617L76.5168 45.3623C76.4017 46.1921 76.4972 46.9955 76.6221 47.7158C76.6637 47.9554 76.707 48.1801 76.7482 48.3936C76.8362 48.8497 76.9144 49.2546 76.9439 49.6442C76.9855 50.1948 76.9144 50.5888 76.6852 50.8949C76.4516 51.2069 75.984 51.5207 75.0216 51.7428L75.0214 51.7429C72.2382 52.3865 69.4158 52.8346 66.8914 51.9002L66.8887 51.8992C66.2812 51.6783 66.0972 51.4582 66.0284 51.3093C65.9478 51.1352 65.952 50.9213 65.9973 50.5315L65.9974 50.5315L65.9981 50.5244C66.4533 46.0514 66.3926 42.9575 66.221 40.604C66.1535 39.6777 66.0687 38.8653 65.9927 38.1377C65.9725 37.9446 65.953 37.7574 65.9345 37.5757C65.8461 36.7038 65.7836 35.9598 65.792 35.247Z" fill="white" stroke="#0061AF" stroke-linejoin="round"/>
<mask id="path-25-inside-1_2956_64" fill="white">
<path fill-rule="evenodd" clip-rule="evenodd" d="M69.7435 37.4148C71.4476 33.0502 65.6919 31.3113 64.6138 35.7802C64.6291 35.6734 64.4035 37.3327 63.6203 41.6732C61.1908 40.8861 57.6043 40.2813 57.0323 40.4056C56.1803 40.6143 55.676 41.9185 55.9716 42.388C56.1803 42.7183 63.6401 46.5961 65.3442 46.0744C65.3626 46.0688 65.381 46.0625 65.3991 46.0553C65.4627 46.0417 65.5256 46.0249 65.5876 46.0048C67.1135 45.4962 67.9235 42.9417 68.7654 40.2864C69.0747 39.3106 69.3884 38.3213 69.7435 37.4148Z"/>
</mask>
<path fill-rule="evenodd" clip-rule="evenodd" d="M69.7435 37.4148C71.4476 33.0502 65.6919 31.3113 64.6138 35.7802C64.6291 35.6734 64.4035 37.3327 63.6203 41.6732C61.1908 40.8861 57.6043 40.2813 57.0323 40.4056C56.1803 40.6143 55.676 41.9185 55.9716 42.388C56.1803 42.7183 63.6401 46.5961 65.3442 46.0744C65.3626 46.0688 65.381 46.0625 65.3991 46.0553C65.4627 46.0417 65.5256 46.0249 65.5876 46.0048C67.1135 45.4962 67.9235 42.9417 68.7654 40.2864C69.0747 39.3106 69.3884 38.3213 69.7435 37.4148Z" fill="white"/>
<path d="M64.6138 35.7802L63.6239 35.6388C63.5484 36.1673 63.9013 36.6619 64.4257 36.7623C64.95 36.8628 65.4607 36.5337 65.5859 36.0147L64.6138 35.7802ZM69.7435 37.4148L70.6746 37.7795L70.6751 37.7785L69.7435 37.4148ZM63.6203 41.6732L63.3121 42.6245C63.5867 42.7135 63.8863 42.6795 64.134 42.5312C64.3816 42.3829 64.5531 42.1349 64.6044 41.8508L63.6203 41.6732ZM57.0323 40.4056L56.8199 39.4285C56.8114 39.4303 56.8029 39.4323 56.7944 39.4343L57.0323 40.4056ZM55.9716 42.388L55.1254 42.9208L55.1261 42.922L55.9716 42.388ZM65.3442 46.0744L65.0568 45.1165L65.0515 45.1182L65.3442 46.0744ZM65.3991 46.0553L65.19 45.0774C65.1358 45.089 65.0828 45.105 65.0313 45.1254L65.3991 46.0553ZM65.5876 46.0048L65.8954 46.9563L65.9038 46.9535L65.5876 46.0048ZM68.7654 40.2864L69.7186 40.5886L68.7654 40.2864ZM65.5859 36.0147C65.8026 35.1166 66.2236 34.6335 66.6229 34.3949C67.0319 34.1504 67.5034 34.1091 67.926 34.2401C68.3478 34.3708 68.7073 34.6686 68.9 35.0985C69.0888 35.5198 69.1583 36.1643 68.812 37.0511L70.6751 37.7785C71.1809 36.483 71.1699 35.2733 70.7251 34.2807C70.2842 33.2967 69.4569 32.6207 68.518 32.3297C67.5799 32.039 66.5169 32.1282 65.5968 32.6781C64.6669 33.2339 63.9641 34.2093 63.6417 35.5457L65.5859 36.0147ZM64.6044 41.8508C64.997 39.6752 65.2502 38.1691 65.4037 37.2183C65.4805 36.7429 65.5323 36.4062 65.5641 36.1938C65.58 36.0877 65.591 36.0124 65.5976 35.9663C65.6008 35.9435 65.6032 35.9269 65.6046 35.9167C65.6049 35.9142 65.6053 35.911 65.6058 35.9077C65.606 35.9063 65.6064 35.903 65.6069 35.899C65.6071 35.8973 65.6077 35.8926 65.6084 35.8866C65.6087 35.8833 65.6096 35.8748 65.6101 35.8695C65.611 35.8597 65.6133 35.8246 65.6143 35.7993C65.5999 35.6048 64.5984 34.7755 63.6699 35.4472C63.6531 35.5006 63.6359 35.5697 63.6329 35.5848C63.6315 35.5918 63.6295 35.6029 63.6288 35.607C63.6284 35.6097 63.6276 35.6143 63.6273 35.6163C63.6262 35.6228 63.6254 35.6282 63.6253 35.6292C63.6247 35.633 63.6242 35.6365 63.6239 35.6388L65.6038 35.9216C65.6039 35.9206 65.6038 35.9217 65.6035 35.9238C65.6034 35.924 65.6027 35.9288 65.6017 35.935C65.6014 35.9368 65.6007 35.9413 65.6002 35.944C65.5995 35.948 65.5975 35.9591 65.5962 35.9661C65.5932 35.9811 65.576 36.0502 65.5592 36.1035C64.6307 36.7753 63.6292 35.946 63.6148 35.7515C63.6158 35.7263 63.6181 35.6912 63.619 35.6814C63.6195 35.6762 63.6204 35.6677 63.6207 35.6645C63.6214 35.6586 63.6219 35.6541 63.6221 35.6527C63.6225 35.6492 63.6229 35.6466 63.6229 35.6462C63.6231 35.6448 63.6232 35.6443 63.623 35.6455C63.6224 35.6501 63.6207 35.6623 63.6177 35.6832C63.6118 35.7243 63.6016 35.7951 63.5862 35.8973C63.5556 36.1017 63.5049 36.431 63.4293 36.8996C63.278 37.8369 63.0268 39.3307 62.6362 41.4956L64.6044 41.8508ZM63.9285 40.7219C62.659 40.3106 61.1095 39.9532 59.8107 39.7141C59.1596 39.5943 58.5579 39.5017 58.0739 39.4469C57.8328 39.4196 57.61 39.4004 57.4191 39.3929C57.2566 39.3865 57.0264 39.3836 56.8199 39.4285L57.2447 41.3828C57.1812 41.3966 57.1882 41.3854 57.3408 41.3913C57.4651 41.3962 57.6352 41.41 57.8488 41.4342C58.274 41.4824 58.8281 41.5669 59.4487 41.6811C60.6936 41.9102 62.1521 42.2487 63.3121 42.6245L63.9285 40.7219ZM56.7944 39.4343C55.9588 39.639 55.4302 40.32 55.1687 40.8691C55.0288 41.1628 54.9297 41.488 54.8977 41.8107C54.8682 42.1081 54.8833 42.5363 55.1254 42.9208L56.8178 41.8551C56.8695 41.9372 56.8821 42.0017 56.885 42.02C56.8882 42.0398 56.885 42.0372 56.8879 42.0083C56.8939 41.9479 56.9187 41.8459 56.9744 41.7289C57.0294 41.6135 57.0984 41.5172 57.1648 41.4522C57.2313 41.3872 57.2701 41.3769 57.2702 41.3769L56.7944 39.4343ZM55.1261 42.922C55.2223 43.0743 55.3424 43.1726 55.3695 43.1953C55.4211 43.2387 55.4744 43.2776 55.5202 43.3096C55.6133 43.3746 55.7268 43.4461 55.8491 43.5197C56.0968 43.6686 56.4286 43.8541 56.8148 44.0595C57.5891 44.4715 58.6143 44.9807 59.6872 45.4628C60.7561 45.9432 61.8952 46.407 62.891 46.7192C63.3878 46.8749 63.8724 47.0003 64.3081 47.0676C64.7142 47.1303 65.2016 47.1639 65.6369 47.0306L65.0515 45.1182C65.0607 45.1153 64.9422 45.1418 64.6134 45.091C64.3142 45.0448 63.9347 44.9503 63.4892 44.8107C62.6005 44.5322 61.5422 44.1037 60.507 43.6386C59.4758 43.1752 58.4905 42.6856 57.7541 42.2939C57.385 42.0975 57.0864 41.9299 56.8796 41.8056C56.7746 41.7425 56.7047 41.6973 56.6648 41.6695C56.6441 41.655 56.6434 41.6535 56.6545 41.6628C56.6602 41.6676 56.6772 41.682 56.6996 41.7048C56.717 41.7225 56.7666 41.7741 56.8171 41.854L55.1261 42.922ZM65.6315 47.0322C65.6779 47.0183 65.7231 47.0025 65.767 46.9852L65.0313 45.1254C65.0389 45.1224 65.0474 45.1194 65.0568 45.1166L65.6315 47.0322ZM65.2798 45.0534C65.2508 45.0628 65.2208 45.0708 65.19 45.0774L65.6083 47.0332C65.7046 47.0126 65.8005 46.987 65.8954 46.9563L65.2798 45.0534ZM67.8121 39.9841C67.3847 41.3323 66.9933 42.5597 66.5322 43.5164C66.0505 44.5158 65.62 44.94 65.2714 45.0562L65.9038 46.9535C67.0812 46.5611 67.8186 45.4537 68.3338 44.3848C68.8696 43.2733 69.3041 41.8959 69.7186 40.5886L67.8121 39.9841ZM68.8124 37.05C68.443 37.993 68.1194 39.0151 67.8121 39.9841L69.7186 40.5886C70.0301 39.6062 70.3338 38.6495 70.6746 37.7795L68.8124 37.05Z" fill="#0061AF" mask="url(#path-25-inside-1_2956_64)"/>
<mask id="path-27-inside-2_2956_64" fill="white">
<path fill-rule="evenodd" clip-rule="evenodd" d="M67.6743 23.1559C67.7264 22.7386 67.9351 22.3734 68.1959 22.0604C70.7173 19 78.351 21.417 74.6472 27.3292C74.5786 27.4374 74.5087 27.5464 74.437 27.6548C74.4336 28.1911 74.4372 28.7191 74.6124 29.2594C74.6482 29.3787 74.6922 29.496 74.7359 29.6127C74.8197 29.8359 74.9026 30.0569 74.9254 30.2853C74.9776 30.9809 74.4733 31.6417 73.8299 31.9547C73.0474 32.3372 72.1606 32.3024 71.3433 32.1807C70.926 32.1285 70.3348 32.0416 70.0913 31.6417C69.927 31.3877 69.968 31.0568 70.0049 30.7591C70.0109 30.7103 70.0169 30.6623 70.0218 30.6157L70.024 30.594C70.0607 30.2399 70.0964 29.8941 70.0891 29.5445C69.938 29.5287 69.7978 29.5038 69.674 29.468C67.9003 28.9464 67.5178 26.8945 67.709 25.9903C67.8199 25.4913 67.7639 24.9875 67.7079 24.4839C67.6585 24.0398 67.6091 23.5959 67.6743 23.1559Z"/>
</mask>
<path fill-rule="evenodd" clip-rule="evenodd" d="M67.6743 23.1559C67.7264 22.7386 67.9351 22.3734 68.1959 22.0604C70.7173 19 78.351 21.417 74.6472 27.3292C74.5786 27.4374 74.5087 27.5464 74.437 27.6548C74.4336 28.1911 74.4372 28.7191 74.6124 29.2594C74.6482 29.3787 74.6922 29.496 74.7359 29.6127C74.8197 29.8359 74.9026 30.0569 74.9254 30.2853C74.9776 30.9809 74.4733 31.6417 73.8299 31.9547C73.0474 32.3372 72.1606 32.3024 71.3433 32.1807C70.926 32.1285 70.3348 32.0416 70.0913 31.6417C69.927 31.3877 69.968 31.0568 70.0049 30.7591C70.0109 30.7103 70.0169 30.6623 70.0218 30.6157L70.024 30.594C70.0607 30.2399 70.0964 29.8941 70.0891 29.5445C69.938 29.5287 69.7978 29.5038 69.674 29.468C67.9003 28.9464 67.5178 26.8945 67.709 25.9903C67.8199 25.4913 67.7639 24.9875 67.7079 24.4839C67.6585 24.0398 67.6091 23.5959 67.6743 23.1559Z" fill="white"/>
<path d="M68.1959 22.0604L68.9642 22.7006L68.9677 22.6963L68.1959 22.0604ZM67.6743 23.1559L68.6635 23.3024L68.6651 23.2912L68.6665 23.2799L67.6743 23.1559ZM74.6472 27.3292L75.4917 27.8648L75.4946 27.8601L74.6472 27.3292ZM74.437 27.6548L73.6032 27.1027L73.4389 27.3508L73.437 27.6485L74.437 27.6548ZM74.6124 29.2594L75.5702 28.972L75.567 28.9614L75.5636 28.9509L74.6124 29.2594ZM74.7359 29.6127L73.7996 29.9638L74.7359 29.6127ZM74.9254 30.2853L75.9226 30.2105L75.9217 30.1982L75.9204 30.1858L74.9254 30.2853ZM73.8299 31.9547L73.3924 31.0554L73.3907 31.0563L73.8299 31.9547ZM71.3433 32.1807L71.4906 31.1916L71.479 31.1899L71.4673 31.1884L71.3433 32.1807ZM70.0913 31.6417L70.9455 31.1217L70.9384 31.11L70.9309 31.0984L70.0913 31.6417ZM70.0049 30.7591L70.9973 30.8821L70.9973 30.8821L70.0049 30.7591ZM70.0218 30.6157L71.0163 30.7204L71.0164 30.7186L70.0218 30.6157ZM70.024 30.594L69.0293 30.4911L69.0293 30.4911L70.024 30.594ZM70.0891 29.5445L71.0889 29.5235L71.0703 28.6417L70.1931 28.5499L70.0891 29.5445ZM69.674 29.468L69.3918 30.4274L69.3968 30.4289L69.674 29.468ZM67.709 25.9903L66.7328 25.7733L66.7307 25.7833L67.709 25.9903ZM67.7079 24.4839L68.7017 24.3734V24.3734L67.7079 24.4839ZM67.4277 21.4202C67.0969 21.8172 66.7664 22.3569 66.682 23.0319L68.6665 23.2799C68.6865 23.1202 68.7733 22.9296 68.9642 22.7006L67.4277 21.4202ZM75.4946 27.8601C76.5165 26.2289 76.8416 24.6974 76.5305 23.3555C76.219 22.0123 75.3116 21.0397 74.235 20.4522C73.1666 19.8692 71.885 19.6344 70.6791 19.7671C69.4727 19.8999 68.2576 20.4129 67.4241 21.4245L68.9677 22.6963C69.395 22.1777 70.0796 21.8452 70.8979 21.7551C71.7167 21.665 72.5848 21.8302 73.277 22.2079C73.961 22.5811 74.4251 23.1301 74.5821 23.8072C74.7394 24.4857 74.6298 25.4734 73.7997 26.7983L75.4946 27.8601ZM75.2707 28.2069C75.3478 28.0905 75.4217 27.9751 75.4917 27.8647L73.8027 26.7937C73.7354 26.8997 73.6697 27.0023 73.6032 27.1027L75.2707 28.2069ZM73.437 27.6485C73.4337 28.1768 73.4302 28.8557 73.6612 29.5679L75.5636 28.9509C75.4442 28.5826 75.4336 28.2054 75.437 27.661L73.437 27.6485ZM73.6546 29.5467C73.7017 29.7037 73.7579 29.8525 73.7996 29.9638L75.6723 29.2615C75.6265 29.1395 75.5947 29.0537 75.5702 28.972L73.6546 29.5467ZM73.7996 29.9638C73.8924 30.2112 73.9228 30.3087 73.9304 30.3848L75.9204 30.1858C75.8824 29.8051 75.747 29.4606 75.6723 29.2615L73.7996 29.9638ZM73.9282 30.3601C73.9406 30.526 73.79 30.862 73.3924 31.0554L74.2674 32.8539C75.1566 32.4213 76.0145 31.4358 75.9226 30.2105L73.9282 30.3601ZM73.3907 31.0563C72.8924 31.2999 72.262 31.3065 71.4906 31.1916L71.196 33.1698C72.0592 33.2984 73.2025 33.3745 74.2691 32.853L73.3907 31.0563ZM71.4673 31.1884C71.2555 31.162 71.0965 31.1364 70.9737 31.0947C70.8464 31.0515 70.8929 31.0352 70.9455 31.1217L69.2371 32.1616C69.5332 32.648 69.997 32.8752 70.3305 32.9885C70.6685 33.1033 71.0137 33.1473 71.2193 33.173L71.4673 31.1884ZM70.9309 31.0984C70.9806 31.1752 70.9737 31.2262 70.9719 31.1794C70.9711 31.1573 70.9718 31.1232 70.9762 31.0707C70.9807 31.0167 70.9877 30.9596 70.9973 30.8821L69.0124 30.6362C68.9959 30.77 68.9641 31.0082 68.9733 31.2542C68.983 31.5108 69.0378 31.8542 69.2517 32.1849L70.9309 31.0984ZM70.9973 30.8821C71.0031 30.835 71.0102 30.7777 71.0163 30.7204L69.0273 30.511C69.0235 30.5469 69.0187 30.5856 69.0124 30.6362L70.9973 30.8821ZM71.0164 30.7186L71.0187 30.6969L69.0293 30.4911L69.0271 30.5128L71.0164 30.7186ZM71.0187 30.697C71.0543 30.3533 71.0978 29.9456 71.0889 29.5235L69.0893 29.5656C69.0951 29.8425 69.0671 30.1264 69.0293 30.4911L71.0187 30.697ZM69.3968 30.4289C69.5914 30.485 69.7921 30.5189 69.9851 30.5391L70.1931 28.5499C70.0838 28.5385 70.0042 28.5225 69.9511 28.5072L69.3968 30.4289ZM66.7307 25.7833C66.5884 26.4559 66.669 27.4033 67.0342 28.2634C67.4121 29.1536 68.1466 30.0612 69.3918 30.4274L69.9561 28.5087C69.4277 28.3532 69.0841 27.974 68.8751 27.4818C68.6534 26.9595 68.6384 26.4289 68.6874 26.1972L66.7307 25.7833ZM66.714 24.5945C66.7732 25.1266 66.8017 25.4635 66.7329 25.7733L68.6852 26.2072C68.8381 25.5191 68.7546 24.8483 68.7017 24.3734L66.714 24.5945ZM66.6851 23.0093C66.5977 23.5992 66.6671 24.1733 66.714 24.5945L68.7017 24.3734C68.6498 23.9064 68.6205 23.5927 68.6635 23.3024L66.6851 23.0093Z" fill="#0061AF" mask="url(#path-27-inside-2_2956_64)"/>
<path d="M75.7253 20.8953C75.5514 20.7041 75.3253 20.5476 75.0471 20.4258C74.9602 20.3911 74.8732 20.3563 74.8211 20.2867C74.7863 20.2346 74.7515 20.165 74.7341 20.1128C74.6124 19.8346 74.3516 19.6433 74.0907 19.5042C73.0996 18.9478 71.8997 18.9304 70.7695 19.0869C70.3869 19.1391 70.0044 19.2086 69.6566 19.3651C69.2566 19.539 68.9089 19.7998 68.5785 20.0955C68.1264 20.5128 67.6917 20.9997 67.4656 21.5909C67.3613 21.8517 67.3265 22.1473 67.2569 22.4082C67.1874 22.6516 67.2743 22.9472 67.483 23.1037C67.5699 23.1733 67.6743 23.2081 67.7612 23.2776C68.1438 23.5384 68.2133 24.1123 68.3698 24.5122C68.4742 24.7557 68.6828 24.8948 68.735 25.173C68.7872 25.4512 68.7872 25.7468 68.8741 26.025C68.9089 26.1468 68.9958 26.3033 69.1349 26.3033C69.1871 26.3033 69.2393 26.2859 69.2914 26.2511C69.4479 26.1468 69.5349 25.9729 69.587 25.7816C69.6392 25.6077 69.674 25.4164 69.7783 25.2599C69.7957 25.2425 69.8131 25.2078 69.8305 25.2078C69.8479 25.2078 69.8826 25.2078 69.9 25.2078C70.0913 25.2425 70.213 25.3817 70.3 25.5555C70.4043 25.7468 70.4739 25.9729 70.526 26.1815C70.613 26.5293 70.6304 26.8075 70.6651 27.1553C70.6999 27.5031 70.8043 27.8683 71.0477 28.1291C71.5868 28.7029 72.6301 28.6855 73.3256 28.529C73.5865 28.4769 73.8299 28.4073 74.0734 28.303C74.6124 28.0421 74.9776 27.5379 75.3253 27.0336C75.6383 26.5815 75.9513 26.1294 76.1252 25.6077C76.2122 25.3121 76.2643 24.9991 76.2991 24.7035C76.5078 23.4341 76.6295 21.8343 75.7253 20.8953Z" fill="#0061AF"/>
<path d="M70.213 24.6513C70.9086 24.4948 71.2216 25.3469 70.839 26.0946C70.7347 26.3206 70.5086 26.5293 70.3348 26.7032C69.2393 27.9726 68.735 26.8423 69.0828 26.425C69.9 25.4338 69.3436 24.8426 70.213 24.6513Z" fill="white"/>
</g>
</g>
<defs>
<clipPath id="clip0_2956_64">
<rect width="25.3877" height="61" fill="white" transform="translate(53.2589 19)"/>
</clipPath>
</defs>
</svg>
