<svg width="45" height="45" viewBox="0 0 45 45" fill="none" xmlns="http://www.w3.org/2000/svg">
<path fill-rule="evenodd" clip-rule="evenodd" d="M43.6394 39.6897C44.3666 39.6897 44.9561 40.2792 44.9561 41.0063V43.6396C44.9561 44.3668 44.3666 44.9563 43.6394 44.9563H41.0061C40.2789 44.9563 39.6895 44.3668 39.6895 43.6396C39.6895 42.9125 40.2789 42.323 41.0061 42.323H42.3228V41.0063C42.3228 40.2792 42.9122 39.6897 43.6394 39.6897Z" fill="#2361A9"/>
<path d="M35.7194 44.9559H30.4319C29.7047 44.9559 29.1152 44.3664 29.1152 43.6393C29.1152 42.9121 29.7047 42.3226 30.4319 42.3226H35.7194C36.4465 42.3226 37.036 42.9121 37.036 43.6393C37.036 44.3664 36.4465 44.9559 35.7194 44.9559ZM25.1444 44.9559H22.4863C21.7592 44.9559 21.1697 44.3664 21.1697 43.6393C21.1697 42.9121 21.7592 42.3226 22.4863 42.3226H25.1444C25.8715 42.3226 26.461 42.9121 26.461 43.6393C26.461 44.3664 25.8716 44.9559 25.1444 44.9559Z" fill="#2361A9"/>
<path fill-rule="evenodd" clip-rule="evenodd" d="M22.4861 42.3665C21.7832 42.3665 21.2134 42.9363 21.2134 43.6392C21.2134 44.3421 21.7832 44.912 22.4861 44.912H25.1442C25.8472 44.912 26.417 44.3421 26.417 43.6392C26.417 42.9363 25.8471 42.3665 25.1442 42.3665H22.4861ZM21.1256 43.6392C21.1256 42.8878 21.7348 42.2787 22.4861 42.2787H25.1442C25.8956 42.2787 26.5047 42.8878 26.5047 43.6392C26.5047 44.3906 25.8957 44.9998 25.1442 44.9998H22.4861C21.7348 44.9998 21.1256 44.3906 21.1256 43.6392ZM30.4317 42.3665C29.7288 42.3665 29.1589 42.9363 29.1589 43.6392C29.1589 44.3421 29.7288 44.912 30.4317 44.912H35.7192C36.4221 44.912 36.9919 44.3421 36.9919 43.6392C36.9919 42.9363 36.4221 42.3665 35.7192 42.3665H30.4317ZM29.0711 43.6392C29.0711 42.8878 29.6803 42.2787 30.4317 42.2787H35.7192C36.4706 42.2787 37.0797 42.8878 37.0797 43.6392C37.0797 44.3906 36.4706 44.9998 35.7192 44.9998H30.4317C29.6803 44.9998 29.0711 44.3906 29.0711 43.6392Z" fill="#2361A9"/>
<path fill-rule="evenodd" clip-rule="evenodd" d="M1.36059 39.6897C2.08776 39.6897 2.67724 40.2792 2.67724 41.0063V42.323H3.99389C4.72106 42.323 5.31054 42.9125 5.31054 43.6396C5.31054 44.3668 4.72106 44.9563 3.99389 44.9563H1.36059C0.633429 44.9563 0.0439453 44.3668 0.0439453 43.6396V41.0063C0.0439453 40.2792 0.633429 39.6897 1.36059 39.6897Z" fill="#2361A9"/>
<path d="M1.36059 26.4603C0.633453 26.4603 0.0439453 25.8708 0.0439453 25.1436V19.8561C0.0439453 19.129 0.633453 18.5395 1.36059 18.5395C2.08774 18.5395 2.67724 19.129 2.67724 19.8561V25.1436C2.67724 25.8708 2.08774 26.4603 1.36059 26.4603ZM1.36059 15.8854C0.633453 15.8854 0.0439453 15.2959 0.0439453 14.5687V9.28125C0.0439453 8.55411 0.633453 7.9646 1.36059 7.9646C2.08774 7.9646 2.67724 8.55411 2.67724 9.28125V14.5687C2.67724 15.2959 2.08774 15.8854 1.36059 15.8854Z" fill="#2361A9"/>
<path fill-rule="evenodd" clip-rule="evenodd" d="M1.36054 8.00843C0.657635 8.00843 0.0877766 8.57829 0.0877766 9.28119V14.5687C0.0877766 15.2716 0.657635 15.8414 1.36054 15.8414C2.06344 15.8414 2.6333 15.2716 2.6333 14.5687V9.28119C2.6333 8.57829 2.06344 8.00843 1.36054 8.00843ZM0 9.28119C0 8.52981 0.609157 7.92065 1.36054 7.92065C2.11192 7.92065 2.72108 8.52981 2.72108 9.28119V14.5687C2.72108 15.3201 2.11192 15.9292 1.36054 15.9292C0.609157 15.9292 0 15.3201 0 14.5687V9.28119ZM1.36054 18.5833C0.657635 18.5833 0.0877766 19.1532 0.0877766 19.8561V25.1436C0.0877766 25.8465 0.657635 26.4163 1.36054 26.4163C2.06344 26.4163 2.6333 25.8465 2.6333 25.1436V19.8561C2.6333 19.1532 2.06344 18.5833 1.36054 18.5833ZM0 19.8561C0 19.1047 0.609157 18.4955 1.36054 18.4955C2.11192 18.4955 2.72108 19.1047 2.72108 19.8561V25.1436C2.72108 25.8949 2.11192 26.5041 1.36054 26.5041C0.609157 26.5041 0 25.8949 0 25.1436V19.8561Z" fill="#2361A9"/>
<path fill-rule="evenodd" clip-rule="evenodd" d="M0.0439453 1.36059C0.0439453 0.633429 0.633429 0.0439453 1.36059 0.0439453H3.99389C4.72106 0.0439453 5.31054 0.633429 5.31054 1.36059C5.31054 2.08776 4.72106 2.67724 3.99389 2.67724H2.67724V3.99389C2.67724 4.72106 2.08776 5.31054 1.36059 5.31054C0.633429 5.31054 0.0439453 4.72106 0.0439453 3.99389V1.36059Z" fill="#2361A9"/>
<path d="M35.7189 2.67724H30.4314C29.7042 2.67724 29.1147 2.08774 29.1147 1.36059C29.1147 0.633453 29.7042 0.0439453 30.4314 0.0439453H35.7189C36.446 0.0439453 37.0355 0.633453 37.0355 1.36059C37.0355 2.08774 36.446 2.67724 35.7189 2.67724ZM25.1439 2.67724H19.8564C19.1292 2.67724 18.5397 2.08774 18.5397 1.36059C18.5397 0.633453 19.1292 0.0439453 19.8564 0.0439453H25.1439C25.871 0.0439453 26.4605 0.633453 26.4605 1.36059C26.4605 2.08774 25.8711 2.67724 25.1439 2.67724ZM14.569 2.67724H9.28149C8.55435 2.67724 7.96484 2.08774 7.96484 1.36059C7.96484 0.633453 8.55435 0.0439453 9.28149 0.0439453H14.569C15.2961 0.0439453 15.8856 0.633453 15.8856 1.36059C15.8856 2.08774 15.2961 2.67724 14.569 2.67724Z" fill="#2361A9"/>
<path fill-rule="evenodd" clip-rule="evenodd" d="M9.28168 0.0877766C8.57878 0.0877766 8.00892 0.657635 8.00892 1.36054C8.00892 2.06344 8.57878 2.6333 9.28168 2.6333H14.5692C15.2721 2.6333 15.8419 2.06344 15.8419 1.36054C15.8419 0.657635 15.2721 0.0877766 14.5692 0.0877766H9.28168ZM7.92114 1.36054C7.92114 0.609157 8.5303 0 9.28168 0H14.5692C15.3206 0 15.9297 0.609157 15.9297 1.36054C15.9297 2.11192 15.3206 2.72108 14.5692 2.72108H9.28168C8.5303 2.72108 7.92114 2.11192 7.92114 1.36054ZM19.8566 0.0877766C19.1537 0.0877766 18.5838 0.657635 18.5838 1.36054C18.5838 2.06344 19.1537 2.6333 19.8566 2.6333H25.1441C25.847 2.6333 26.4168 2.06344 26.4168 1.36054C26.4168 0.657635 25.847 0.0877766 25.1441 0.0877766H19.8566ZM18.496 1.36054C18.496 0.609157 19.1052 0 19.8566 0H25.1441C25.8954 0 26.5046 0.609157 26.5046 1.36054C26.5046 2.11192 25.8955 2.72108 25.1441 2.72108H19.8566C19.1052 2.72108 18.496 2.11192 18.496 1.36054ZM30.4315 0.0877766C29.7286 0.0877766 29.1588 0.657635 29.1588 1.36054C29.1588 2.06344 29.7286 2.6333 30.4315 2.6333H35.719C36.4219 2.6333 36.9918 2.06344 36.9918 1.36054C36.9918 0.657635 36.4219 0.0877766 35.719 0.0877766H30.4315ZM29.071 1.36054C29.071 0.609157 29.6802 0 30.4315 0H35.719C36.4704 0 37.0796 0.609157 37.0796 1.36054C37.0796 2.11192 36.4704 2.72108 35.719 2.72108H30.4315C29.6802 2.72108 29.071 2.11192 29.071 1.36054Z" fill="#2361A9"/>
<path fill-rule="evenodd" clip-rule="evenodd" d="M39.6895 1.36059C39.6895 0.633429 40.2789 0.0439453 41.0061 0.0439453H43.6394C44.3666 0.0439453 44.9561 0.633429 44.9561 1.36059V3.99389C44.9561 4.72106 44.3666 5.31054 43.6394 5.31054C42.9122 5.31054 42.3228 4.72106 42.3228 3.99389V2.67724H41.0061C40.2789 2.67724 39.6895 2.08776 39.6895 1.36059Z" fill="#2361A9"/>
<path d="M43.6392 37.0353C42.912 37.0353 42.3225 36.4457 42.3225 35.7186V30.4311C42.3225 29.704 42.912 29.1145 43.6392 29.1145C44.3663 29.1145 44.9558 29.704 44.9558 30.4311V35.7186C44.9558 36.4457 44.3663 37.0353 43.6392 37.0353ZM43.6392 26.4603C42.912 26.4603 42.3225 25.8708 42.3225 25.1436V19.8561C42.3225 19.129 42.912 18.5395 43.6392 18.5395C44.3663 18.5395 44.9558 19.129 44.9558 19.8561V25.1436C44.9558 25.8708 44.3663 26.4603 43.6392 26.4603ZM43.6392 15.8854C42.912 15.8854 42.3225 15.2959 42.3225 14.5687V9.28125C42.3225 8.55411 42.912 7.9646 43.6392 7.9646C44.3663 7.9646 44.9558 8.55411 44.9558 9.28125V14.5687C44.9558 15.2959 44.3663 15.8854 43.6392 15.8854Z" fill="#2361A9"/>
<path fill-rule="evenodd" clip-rule="evenodd" d="M43.6392 8.00843C42.9363 8.00843 42.3665 8.57829 42.3665 9.28119V14.5687C42.3665 15.2716 42.9363 15.8414 43.6392 15.8414C44.3421 15.8414 44.912 15.2716 44.912 14.5687V9.28119C44.912 8.57829 44.3421 8.00843 43.6392 8.00843ZM42.2787 9.28119C42.2787 8.52981 42.8878 7.92065 43.6392 7.92065C44.3906 7.92065 44.9998 8.52981 44.9998 9.28119V14.5687C44.9998 15.3201 44.3906 15.9292 43.6392 15.9292C42.8878 15.9292 42.2787 15.3201 42.2787 14.5687V9.28119ZM43.6392 18.5833C42.9363 18.5833 42.3665 19.1532 42.3665 19.8561V25.1436C42.3665 25.8465 42.9363 26.4163 43.6392 26.4163C44.3421 26.4163 44.912 25.8465 44.912 25.1436V19.8561C44.912 19.1532 44.3421 18.5833 43.6392 18.5833ZM42.2787 19.8561C42.2787 19.1047 42.8878 18.4955 43.6392 18.4955C44.3906 18.4955 44.9998 19.1047 44.9998 19.8561V25.1436C44.9998 25.8949 44.3906 26.5041 43.6392 26.5041C42.8878 26.5041 42.2787 25.8949 42.2787 25.1436V19.8561ZM43.6392 29.1583C42.9363 29.1583 42.3665 29.7282 42.3665 30.4311V35.7185C42.3665 36.4214 42.9363 36.9913 43.6392 36.9913C44.3421 36.9913 44.912 36.4214 44.912 35.7185V30.4311C44.912 29.7282 44.3421 29.1583 43.6392 29.1583ZM42.2787 30.4311C42.2787 29.6797 42.8878 29.0705 43.6392 29.0705C44.3906 29.0705 44.9998 29.6797 44.9998 30.4311V35.7185C44.9998 36.4699 44.3906 37.0791 43.6392 37.0791C42.8878 37.0791 42.2787 36.4699 42.2787 35.7185V30.4311Z" fill="#2361A9"/>
<path fill-rule="evenodd" clip-rule="evenodd" d="M38.0219 6.97914C38.5361 7.49333 38.5361 8.32698 38.0219 8.84117L23.4173 23.4457C22.9032 23.9599 22.0695 23.9599 21.5553 23.4457C21.0411 22.9315 21.0411 22.0979 21.5553 21.5837L36.1599 6.97914C36.674 6.46496 37.5077 6.46496 38.0219 6.97914Z" fill="#2361A9"/>
<path fill-rule="evenodd" clip-rule="evenodd" d="M31.1683 7.89746C31.1683 7.17029 31.7578 6.58081 32.485 6.58081H37.1028C37.83 6.58081 38.4195 7.17029 38.4195 7.89746V12.5153C38.4195 13.2425 37.83 13.8319 37.1028 13.8319C36.3757 13.8319 35.7862 13.2425 35.7862 12.5153V9.21411H32.485C31.7578 9.21411 31.1683 8.62463 31.1683 7.89746Z" fill="#2361A9"/>
<path fill-rule="evenodd" clip-rule="evenodd" d="M0.0439453 22.5148C0.0439453 21.7876 0.633429 21.1981 1.36059 21.1981H22.4853C23.2124 21.1981 23.8019 21.7876 23.8019 22.5148V43.6394C23.8019 44.3666 23.2124 44.9561 22.4853 44.9561H1.36059C0.633429 44.9561 0.0439453 44.3666 0.0439453 43.6394V22.5148ZM2.67724 23.8314V42.3228H21.1686V23.8314H2.67724Z" fill="#2361A9"/>
</svg>
