<svg width="45" height="45" viewBox="0 0 45 45" fill="none" xmlns="http://www.w3.org/2000/svg">
<mask id="mask0_2955_692" style="mask-type:luminance" maskUnits="userSpaceOnUse" x="0" y="0" width="45" height="45">
<path d="M0 -3.8147e-06H45V45H0V-3.8147e-06Z" fill="white"/>
</mask>
<g mask="url(#mask0_2955_692)">
<path fill-rule="evenodd" clip-rule="evenodd" d="M7.40348 43.7297C7.40349 43.7296 7.4035 43.7296 7.40352 43.7296L15.1261 36.0071L15.1261 36.0071C16.8197 34.3135 16.8197 31.5676 15.1261 29.8739C13.4324 28.1803 10.6865 28.1803 8.99288 29.8739L8.99287 29.8739L1.2704 37.5965C1.27039 37.5965 1.27038 37.5965 1.27036 37.5965C-0.423303 39.2901 -0.42324 42.036 1.27037 43.7296C2.96398 45.4233 5.70989 45.4233 7.40348 43.7297ZM5.539 41.8652C4.87518 42.5291 3.79877 42.5292 3.13481 41.8652C2.47085 41.2012 2.4709 40.1248 3.13477 39.461L3.13481 39.461L10.8573 31.7384C11.5213 31.0744 12.5977 31.0744 13.2616 31.7384C13.9256 32.4023 13.9256 33.4788 13.2616 34.1427L5.53904 41.8652L5.539 41.8652Z" fill="#2361A9"/>
<path fill-rule="evenodd" clip-rule="evenodd" d="M18.1259 25.0098L13.2616 29.874L15.1261 31.7385L19.9904 26.8743L18.1259 25.0098Z" fill="#2361A9"/>
<path fill-rule="evenodd" clip-rule="evenodd" d="M38.5248 25.0098C33.4067 30.128 25.1085 30.128 19.9904 25.0098L19.9904 25.0098C14.8721 19.8917 14.8721 11.5935 19.9904 6.47537L19.9904 6.47536C25.1085 1.35713 33.4067 1.35713 38.5248 6.47536L39.457 5.54314L38.5248 6.47536C43.643 11.5935 43.643 19.8917 38.5248 25.0098ZM18.1259 26.8743C24.2738 33.0221 34.2414 33.0221 40.3893 26.8743C46.5371 20.7264 46.5371 10.7588 40.3893 4.61092C34.2414 -1.53702 24.2738 -1.53702 18.1259 4.61093C11.978 10.7588 11.978 20.7264 18.1259 26.8743C18.1259 26.8743 18.1259 26.8743 18.1259 26.8743Z" fill="#2361A9"/>
<path fill-rule="evenodd" clip-rule="evenodd" d="M22.5779 22.6862C23.306 22.6862 23.8962 22.0959 23.8962 21.3678V17.1486C23.8962 16.4205 23.306 15.8302 22.5779 15.8302C21.8497 15.8302 21.2595 16.4205 21.2595 17.1486V21.3678C21.2595 22.0959 21.8497 22.6862 22.5779 22.6862Z" fill="#2361A9"/>
<path fill-rule="evenodd" clip-rule="evenodd" d="M26.9724 22.6862C27.7005 22.6862 28.2907 22.0959 28.2907 21.3678V12.7541C28.2907 12.026 27.7005 11.4357 26.9724 11.4357C26.2443 11.4357 25.654 12.026 25.654 12.7541V21.3678C25.654 22.0959 26.2443 22.6862 26.9724 22.6862Z" fill="#2361A9"/>
<path fill-rule="evenodd" clip-rule="evenodd" d="M31.3669 22.6862C32.095 22.6862 32.6853 22.0959 32.6853 21.3678V14.5119C32.6853 13.7838 32.095 13.1935 31.3669 13.1935C30.6388 13.1935 30.0486 13.7838 30.0486 14.5119V21.3678C30.0486 22.0959 30.6388 22.6862 31.3669 22.6862Z" fill="#2361A9"/>
<path fill-rule="evenodd" clip-rule="evenodd" d="M35.7614 22.6862C36.4896 22.6862 37.0798 22.0959 37.0798 21.3678V10.1174C37.0798 9.38925 36.4896 8.799 35.7614 8.799C35.0333 8.799 34.4431 9.38925 34.4431 10.1174V21.3678C34.4431 22.0959 35.0333 22.6862 35.7614 22.6862Z" fill="#2361A9"/>
</g>
</svg>
