<svg width="38" height="45" viewBox="0 0 38 45" fill="none" xmlns="http://www.w3.org/2000/svg">
<path fill-rule="evenodd" clip-rule="evenodd" d="M6.0273 2.63467C4.18718 2.6315 2.63489 4.17188 2.63489 6.14694V35.1923C2.63489 35.9198 2.0451 36.5096 1.31756 36.5096C0.590019 36.5096 0.000228882 35.9198 0.000228882 35.1923V6.14694C0.000228882 2.78118 2.66946 -0.00550015 6.03133 8.15201e-06C6.0315 8.40346e-06 6.03167 8.65492e-06 6.03184 8.90638e-06L32.6313 0.0355761C33.3589 0.0365489 33.9479 0.627127 33.9469 1.35467C33.9459 2.08221 33.3554 2.67121 32.6278 2.67024L6.0273 2.63467Z" fill="#0062AD"/>
<path fill-rule="evenodd" clip-rule="evenodd" d="M27.6897 5.07207C27.6897 2.32345 29.8688 0.0356445 32.6295 0.0356445C35.3902 0.0356445 37.5693 2.32345 37.5693 5.07207V43.6824C37.5693 44.4099 36.9796 44.9997 36.252 44.9997C35.5245 44.9997 34.9347 44.4099 34.9347 43.6824V5.07207C34.9347 3.71272 33.8702 2.67031 32.6295 2.67031C31.3889 2.67031 30.3244 3.71272 30.3244 5.07207V35.1923C30.3244 35.667 30.0689 36.105 29.6558 36.3388C29.2426 36.5726 28.7356 36.566 28.3287 36.3215L25.5387 34.6455L22.714 36.3246C22.2954 36.5735 21.7737 36.5711 21.3574 36.3184L18.6012 34.6455L15.7423 36.3276C15.3317 36.5692 14.8228 36.5703 14.4112 36.3306L11.5219 34.6477L8.83782 36.3119C8.42125 36.5701 7.89572 36.5758 7.47369 36.3265L4.64214 34.654L2.01991 36.3067C1.40441 36.6946 0.590981 36.5101 0.203055 35.8947C-0.184871 35.2792 -0.000390971 34.4657 0.615102 34.0778L3.91748 31.9964C4.33509 31.7332 4.86481 31.7256 5.28984 31.9766L8.12712 33.6525L10.8065 31.9913C11.2206 31.7345 11.7426 31.7273 12.1637 31.9725L15.0709 33.6658L17.9437 31.9755C18.3616 31.7296 18.8807 31.7332 19.2952 31.9847L22.048 33.6555L24.8691 31.9785C25.2859 31.7308 25.805 31.732 26.2206 31.9816L27.6897 32.8641V5.07207Z" fill="#0062AD"/>
<path fill-rule="evenodd" clip-rule="evenodd" d="M4.12379 32.0996C4.85133 32.0996 5.44112 32.6894 5.44112 33.4169V41.5129L7.51998 40.4322C7.89837 40.2355 8.34857 40.2341 8.72814 40.4285L12.1765 42.1947L15.439 40.4407C15.818 40.237 16.2726 40.2312 16.6566 40.4251L20.1809 42.205L23.6647 40.4276C24.0461 40.233 24.4981 40.2359 24.877 40.4353L28.2244 42.1971L31.6524 40.4301C32.0328 40.234 32.4848 40.2349 32.8645 40.4326L36.8607 42.514C37.506 42.8501 37.7566 43.6456 37.4206 44.2909C37.0845 44.9362 36.289 45.1868 35.6437 44.8507L32.2528 43.0847L28.8216 44.8533C28.4394 45.0503 27.9851 45.0484 27.6045 44.8481L24.254 43.0847L20.7826 44.8558C20.4082 45.0468 19.9652 45.0477 19.59 44.8583L16.0818 43.0864L12.8151 44.8427C12.4338 45.0477 11.9761 45.0522 11.5908 44.8549L8.13209 43.0834L4.73141 44.8512C4.32304 45.0635 3.83348 45.0473 3.44008 44.8084C3.04667 44.5695 2.80646 44.1426 2.80646 43.6824V33.4169C2.80646 32.6894 3.39625 32.0996 4.12379 32.0996Z" fill="#0062AD"/>
<path fill-rule="evenodd" clip-rule="evenodd" d="M20.2607 9.44357C20.8662 9.84694 21.03 10.6648 20.6266 11.2703L11.5055 24.9613C11.1021 25.5668 10.2843 25.7306 9.67883 25.3272C9.07335 24.9239 8.90951 24.106 9.31289 23.5005L18.434 9.80951C18.8374 9.20403 19.6552 9.04019 20.2607 9.44357Z" fill="#0062AD"/>
<path fill-rule="evenodd" clip-rule="evenodd" d="M10.3478 11.7877C9.85591 11.7877 9.45717 12.1865 9.45717 12.6783C9.45717 13.1702 9.85591 13.5689 10.3478 13.5689C10.8396 13.5689 11.2384 13.1702 11.2384 12.6783C11.2384 12.1865 10.8396 11.7877 10.3478 11.7877ZM6.82251 12.6783C6.82251 10.7314 8.40083 9.15308 10.3478 9.15308C12.2947 9.15308 13.873 10.7314 13.873 12.6783C13.873 14.6253 12.2947 16.2036 10.3478 16.2036C8.40083 16.2036 6.82251 14.6253 6.82251 12.6783Z" fill="#0062AD"/>
<path fill-rule="evenodd" clip-rule="evenodd" d="M19.7664 21.3499C19.2745 21.3499 18.8758 21.7486 18.8758 22.2405C18.8758 22.7323 19.2745 23.1311 19.7664 23.1311C20.2582 23.1311 20.657 22.7323 20.657 22.2405C20.657 21.7486 20.2582 21.3499 19.7664 21.3499ZM16.2411 22.2405C16.2411 20.2935 17.8194 18.7152 19.7664 18.7152C21.7133 18.7152 23.2916 20.2935 23.2916 22.2405C23.2916 24.1874 21.7133 25.7657 19.7664 25.7657C17.8194 25.7657 16.2411 24.1874 16.2411 22.2405Z" fill="#0062AD"/>
</svg>
