<svg width="38" height="47" viewBox="0 0 38 47" fill="none" xmlns="http://www.w3.org/2000/svg">
<path d="M26.5929 23.5282V18.9751H30.9217C32.2075 19.0228 32.9519 17.3527 32.0403 16.436L18.4079 1.73285C17.9742 1.2673 17.3598 1.00037 16.722 1C16.0845 0.999925 15.4695 1.26722 15.034 1.73434L1.40266 16.4369C0.493813 17.3502 1.234 19.0254 2.52174 18.9751H6.8508V37.6988C6.8508 38.533 7.5328 39.2113 8.37102 39.2113H15.4194C20.3651 50.2056 36.7519 46.9288 36.9433 34.7175C36.9433 28.8214 32.3746 23.9817 26.5929 23.5282ZM8.3487 37.6988V18.2262C8.3487 17.8126 8.01332 17.4772 7.59975 17.4772L2.50197 17.4542L16.1311 2.75426C16.2851 2.58889 16.4952 2.49782 16.7221 2.49789C16.9488 2.49827 17.1583 2.58897 17.3108 2.75239L30.9217 17.4771H25.844C25.4304 17.4771 25.095 17.8125 25.095 18.2261V23.5144C18.1019 23.7784 12.8857 30.9524 14.8923 37.7114L8.3487 37.6988ZM25.7091 44.454C20.3402 44.454 15.9728 40.0865 15.9728 34.7177C16.5028 21.8027 34.9104 21.8116 35.4454 34.7178C35.4454 40.0864 31.0778 44.454 25.7091 44.454Z" fill="#2361A9" stroke="#2361A9"/>
<path d="M30.7323 29.6945C30.4397 29.402 29.9658 29.402 29.6732 29.6945L20.6858 38.6819C20.3933 38.9744 20.3933 39.4483 20.6858 39.741C20.9783 40.0336 21.4523 40.0335 21.7449 39.741L30.7323 30.7536C31.0248 30.4611 31.0248 29.9871 30.7323 29.6945Z" fill="#2361A9" stroke="#2361A9"/>
<path d="M24.5856 30.9729C24.4947 27.5165 19.4334 27.5172 19.343 30.973C19.4339 34.4294 24.4953 34.4287 24.5856 30.9729ZM20.8409 30.9729C20.8672 29.4966 23.0616 29.4968 23.0878 30.973C23.0614 32.4493 20.867 32.449 20.8409 30.9729Z" fill="#2361A9" stroke="#2361A9"/>
<path d="M29.4538 35.8411C25.9973 35.932 25.998 40.9933 29.4539 41.0837C32.9103 40.9928 32.9095 35.9315 29.4538 35.8411ZM29.4538 39.5858C27.9775 39.5595 27.9776 37.3651 29.4539 37.339C30.9301 37.3652 30.9299 39.5597 29.4538 39.5858Z" fill="#2361A9" stroke="#2361A9"/>
</svg>
