<svg width="57" height="57" viewBox="0 0 57 57" fill="none" xmlns="http://www.w3.org/2000/svg">
<path d="M50.3906 36.9557C48.9322 36.0945 47.0842 36.1847 45.4412 37.196L35.6379 42.5366C35.6006 42.557 35.565 42.5803 35.5315 42.6064C35.368 42.7307 35.1879 42.8313 34.9963 42.9051C35.3209 42.4832 35.5099 41.9727 35.5386 41.4412C35.5913 40.1943 34.7191 39.0031 32.9461 37.9026C29.2114 35.5839 21.8949 34.0574 18.9967 35.6478C18.9872 35.6529 18.9779 35.6582 18.9686 35.6639L12.6124 39.504L12.4856 39.2846C12.1248 38.6626 11.5322 38.2089 10.8376 38.0227C10.1429 37.8366 9.40285 37.9332 8.77931 38.2915L6.14918 39.8101C5.52715 40.171 5.07341 40.7636 4.88728 41.4582C4.70115 42.1528 4.79778 42.8929 5.15602 43.5164L11.5797 54.643C11.9397 55.2658 12.5323 55.7203 13.2273 55.9065C13.9222 56.0927 14.6626 55.9954 15.2859 55.636L17.9162 54.1174C18.5206 53.7675 18.9669 53.1982 19.1626 52.5279C19.3583 51.8575 19.2883 51.1375 18.9672 50.5174L19.544 50.1448C19.6025 50.1639 19.6724 50.1855 19.7539 50.208L29.1819 52.798C29.9581 53.0758 30.7755 53.2215 31.6 53.2289C32.7893 53.2275 33.9531 52.8844 34.953 52.2405L49.4966 43.4706C51.7514 42.4202 52.1594 40.9129 52.2013 40.105C52.2662 38.8605 51.5722 37.6537 50.3906 36.9557ZM17.1369 52.7677L14.5066 54.2863C14.2413 54.439 13.9262 54.4803 13.6305 54.401C13.3348 54.3217 13.0827 54.1283 12.9294 53.8633L6.50576 42.7367C6.35424 42.4711 6.31368 42.1564 6.3929 41.861C6.47212 41.5657 6.66471 41.3135 6.92881 41.1594L9.55916 39.6408C9.73296 39.5404 9.93016 39.4878 10.1308 39.4881C10.2335 39.4882 10.3358 39.5018 10.435 39.5284C10.5815 39.5669 10.7189 39.6341 10.8393 39.7261C10.9597 39.8181 11.0607 39.933 11.1363 40.0643L17.56 51.1907C17.7127 51.456 17.7539 51.7709 17.6747 52.0666C17.5955 52.3622 17.4023 52.6143 17.1374 52.7677H17.1369ZM50.6452 40.0245C50.6041 40.8202 49.951 41.5476 48.8062 42.0729C48.7797 42.0851 48.7538 42.0988 48.7288 42.1139L34.1424 50.9096L34.1295 50.9175C32.7836 51.7651 31.3249 51.8959 29.671 51.3183C29.6542 51.3125 29.6376 51.3072 29.6203 51.3025L20.1673 48.7057C20.0653 48.6776 19.9935 48.6524 19.93 48.6302C19.4205 48.452 19.1536 48.5421 18.7123 48.8273L18.19 49.1649L13.3917 40.8547L19.7597 37.0075C21.9158 35.8436 28.6051 37.0427 32.1238 39.2273C33.3304 39.9764 34.0074 40.7594 33.9812 41.3759C33.9575 41.9361 33.3308 42.5631 32.2158 43.1484C30.6926 43.0183 28.5747 42.5734 25.6261 41.6021C25.4298 41.5375 25.2158 41.5534 25.0312 41.6465C24.8467 41.7396 24.7066 41.9023 24.6419 42.0986C24.5773 42.295 24.5932 42.509 24.6863 42.6935C24.7795 42.8781 24.9421 43.0181 25.1384 43.0828C30.9083 44.9834 34.6054 45.244 36.4355 43.8781L46.2054 38.5556C46.2183 38.5487 46.231 38.5412 46.2434 38.5334C47.8951 37.5092 49.1395 38.0278 49.5979 38.2986C50.2783 38.6995 50.6796 39.3612 50.6452 40.0245ZM10.8751 43.4158C10.9278 43.5045 10.9624 43.6027 10.9769 43.7049C10.9914 43.8071 10.9854 43.9111 10.9593 44.011C10.9333 44.1108 10.8877 44.2045 10.8251 44.2865C10.7626 44.3686 10.6843 44.4374 10.595 44.489C10.5056 44.5406 10.4069 44.574 10.3045 44.5871C10.2022 44.6003 10.0983 44.5929 9.99876 44.5656C9.89926 44.5383 9.80618 44.4914 9.72493 44.4278C9.64368 44.3642 9.57586 44.2851 9.52543 44.1951L8.58882 42.573C8.53607 42.4843 8.50146 42.3861 8.48699 42.2839C8.47253 42.1817 8.47849 42.0777 8.50455 41.9779C8.53061 41.878 8.57623 41.7843 8.63878 41.7023C8.70133 41.6202 8.77955 41.5514 8.86891 41.4998C8.95827 41.4482 9.05699 41.4148 9.15934 41.4017C9.26169 41.3885 9.36563 41.3959 9.46512 41.4232C9.56462 41.4506 9.6577 41.4974 9.73895 41.561C9.82021 41.6246 9.88802 41.7037 9.93846 41.7937L10.8751 43.4158ZM13.9939 21.2797C14.0395 21.1881 14.1028 21.1064 14.18 21.0393C14.2572 20.9721 14.3469 20.9208 14.4439 20.8883C14.541 20.8558 14.6435 20.8427 14.7456 20.8498C14.8477 20.8569 14.9474 20.8841 15.039 20.9297L15.9358 21.3769C14.9457 18.4855 14.8397 15.3647 15.6316 12.4128C17.8282 4.2157 26.2845 -0.666479 34.4815 1.53014C37.0504 2.21786 39.3973 3.55947 41.2933 5.42417C41.3671 5.49582 41.4259 5.58135 41.4664 5.67583C41.5069 5.7703 41.5283 5.87186 41.5294 5.97465C41.5305 6.07744 41.5112 6.17943 41.4728 6.27475C41.4343 6.37007 41.3773 6.45683 41.3051 6.53003C41.233 6.60324 41.147 6.66145 41.0523 6.7013C40.9575 6.74115 40.8558 6.76187 40.753 6.76224C40.6502 6.76262 40.5484 6.74266 40.4533 6.70351C40.3583 6.66436 40.2719 6.60678 40.1992 6.53411C37.9896 4.36073 35.1141 2.99237 32.0338 2.64849C28.9536 2.30462 25.8471 3.00514 23.2126 4.63772C20.5781 6.2703 18.5681 8.74035 17.5051 11.6517C16.4421 14.5631 16.3877 17.7471 17.3505 20.6932L17.5936 19.8798C17.6528 19.6818 17.7882 19.5154 17.9701 19.4172C18.152 19.319 18.3655 19.2971 18.5635 19.3563C18.7615 19.4155 18.9279 19.551 19.0261 19.7329C19.1243 19.9148 19.1462 20.1282 19.087 20.3262L18.217 23.2363C18.1845 23.3452 18.1285 23.4456 18.0531 23.5306C17.9776 23.6156 17.8845 23.683 17.7803 23.7282C17.676 23.7734 17.5631 23.7952 17.4495 23.7922C17.3359 23.7891 17.2244 23.7613 17.1227 23.7106L14.3436 22.3249C14.252 22.2792 14.1703 22.216 14.1032 22.1387C14.036 22.0615 13.9848 21.9718 13.9523 21.8747C13.9198 21.7777 13.9068 21.6752 13.9139 21.5731C13.9211 21.471 13.9482 21.3713 13.9939 21.2797ZM41.8769 12.4038L42.747 9.49355C42.7795 9.38467 42.8355 9.28423 42.9109 9.19926C42.9864 9.1143 43.0795 9.04687 43.1838 9.00169C43.2881 8.95652 43.401 8.9347 43.5146 8.93775C43.6282 8.94081 43.7397 8.96868 43.8414 9.0194L46.6205 10.4052C46.8038 10.4984 46.9429 10.6603 47.0073 10.8556C47.0718 11.0508 47.0565 11.2637 46.9647 11.4477C46.8729 11.6317 46.7121 11.772 46.5174 11.838C46.3226 11.904 46.1097 11.8903 45.9249 11.7999L45.0419 11.3596C46.0501 14.2663 46.1625 17.4087 45.3647 20.38C43.5245 27.248 37.2894 31.7891 30.4947 31.7891C26.4307 31.7856 22.5324 30.1776 19.6477 27.3148C19.5036 27.1685 19.4231 26.9713 19.4236 26.7659C19.4241 26.5605 19.5057 26.3637 19.6506 26.2181C19.7955 26.0726 19.992 25.9901 20.1974 25.9887C20.4027 25.9872 20.6004 26.0669 20.7473 26.2104C22.9557 28.404 25.8393 29.7888 28.932 30.1408C32.0247 30.4928 35.1458 29.7915 37.7906 28.1503C40.4355 26.5091 42.4495 24.0238 43.5072 21.0963C44.5648 18.1688 44.6043 14.9702 43.6191 12.0175L43.3702 12.8502C43.311 13.0482 43.1755 13.2146 42.9936 13.3128C42.8118 13.411 42.5983 13.4329 42.4003 13.3737C42.2023 13.3145 42.0359 13.179 41.9377 12.9971C41.8395 12.8152 41.8177 12.6018 41.8769 12.4038ZM34.8466 10.9436C34.8466 10.0871 34.5926 9.24978 34.1167 8.53761C33.6409 7.82543 32.9645 7.27036 32.1732 6.94258C31.3818 6.61481 30.5111 6.52905 29.671 6.69615C28.831 6.86324 28.0593 7.2757 27.4537 7.88135C26.848 8.48701 26.4355 9.25866 26.2684 10.0987C26.1013 10.9388 26.1871 11.8095 26.5149 12.6009C26.8427 13.3922 27.3977 14.0686 28.1099 14.5444C28.8221 15.0203 29.6594 15.2743 30.5159 15.2743C31.664 15.2728 32.7647 14.8161 33.5766 14.0043C34.3884 13.1924 34.8451 12.0917 34.8466 10.9436ZM27.7429 10.9436C27.7429 10.3953 27.9055 9.85938 28.2101 9.40352C28.5147 8.94765 28.9477 8.59235 29.4542 8.38254C29.9607 8.17273 30.5181 8.11783 31.0558 8.22479C31.5935 8.33175 32.0875 8.59577 32.4752 8.98345C32.8628 9.37113 33.1269 9.86506 33.2338 10.4028C33.3408 10.9405 33.2859 11.4979 33.0761 12.0044C32.8663 12.511 32.511 12.9439 32.0551 13.2485C31.5992 13.5531 31.0633 13.7157 30.515 13.7157C29.7801 13.7147 29.0756 13.4224 28.5559 12.9027C28.0362 12.383 27.7439 11.6785 27.7429 10.9436ZM22.7677 22.5648C22.7273 22.8839 22.7553 23.208 22.8499 23.5155C22.9444 23.823 23.1033 24.1068 23.316 24.3481C23.5288 24.5895 23.7904 24.7827 24.0836 24.9151C24.3768 25.0475 24.6948 25.1159 25.0165 25.1159H36.0146C36.3363 25.1159 36.6543 25.0475 36.9475 24.9151C37.2407 24.7827 37.5024 24.5895 37.7151 24.3481C37.9278 24.1068 38.0867 23.823 38.1813 23.5155C38.2758 23.208 38.3038 22.8839 38.2634 22.5648C38.0235 20.6794 37.1042 18.9462 35.678 17.69C34.2517 16.4338 32.4163 15.7408 30.5157 15.7408C28.6151 15.7408 26.7797 16.4338 25.3535 17.69C23.9272 18.9462 23.008 20.6794 22.768 22.5648H22.7677ZM30.515 17.2997C32.0356 17.3015 33.5035 17.8566 34.6447 18.8616C35.7859 19.8665 36.5224 21.2524 36.7165 22.7605C36.7291 22.8601 36.7203 22.9613 36.6908 23.0573C36.6613 23.1532 36.6117 23.2418 36.5453 23.3171C36.4789 23.3925 36.3972 23.4528 36.3058 23.4942C36.2143 23.5356 36.115 23.557 36.0146 23.5571H25.0162C24.9157 23.557 24.8164 23.5356 24.7249 23.4943C24.6333 23.4529 24.5516 23.3926 24.4852 23.3172C24.4187 23.2418 24.3691 23.1532 24.3396 23.0572C24.31 22.9612 24.3012 22.86 24.3138 22.7603C24.508 21.2523 25.2444 19.8664 26.3855 18.8616C27.5267 17.8567 28.9945 17.3015 30.515 17.2997Z" fill="#2361A9" stroke="#2361A9" stroke-width="0.7"/>
</svg>
