<svg width="52" height="52" viewBox="0 0 52 52" fill="none" xmlns="http://www.w3.org/2000/svg">
<g clip-path="url(#clip0_2955_712)">
<path d="M25.9999 13.5779C32.8723 13.5779 38.4173 19.1277 38.4173 26.0001C38.4173 32.8678 32.8711 38.4223 25.9999 38.4223C19.1275 38.4223 13.573 32.8678 13.573 26.0001C13.573 19.1277 19.1275 13.5779 25.9999 13.5779ZM25.9999 11.8033C18.1716 11.8033 11.7984 18.167 11.7984 26.0001C11.7984 33.8284 18.1716 40.1968 25.9999 40.1968C33.8282 40.1968 40.1919 33.8284 40.1919 26.0001C40.1919 18.167 33.8282 11.8033 25.9999 11.8033Z" fill="#2361A9" stroke="#2361A9"/>
<path d="M26.0004 1.15574C25.5059 1.15101 25.1084 1.55325 25.1084 2.04304V9.13669C25.1084 9.63121 25.5059 10.0335 26.0004 10.0287C26.4902 10.0287 26.8877 9.63121 26.883 9.13669V2.04304C26.8877 1.55325 26.4902 1.15574 26.0004 1.15574Z" fill="#2361A9" stroke="#2361A9"/>
<path d="M26.0004 41.9715C25.5106 41.9715 25.1131 42.369 25.1084 42.8588V49.9571C25.1131 50.4469 25.5106 50.8444 26.0004 50.8444C26.4902 50.8397 26.883 50.4469 26.883 49.9571V42.8588C26.883 42.369 26.4902 41.9762 26.0004 41.9715Z" fill="#2361A9" stroke="#2361A9"/>
<path d="M42.859 25.1129C42.3692 25.1129 41.9717 25.5104 41.9717 26.0002C41.967 26.49 42.3692 26.8922 42.859 26.8875H49.9621C50.4519 26.8875 50.8447 26.49 50.8447 26.0002C50.8447 25.5104 50.4472 25.1176 49.9621 25.1129H42.859Z" fill="#2361A9" stroke="#2361A9"/>
<path d="M2.04294 25.1129C1.55315 25.1176 1.16037 25.5104 1.15564 26.0002C1.15564 26.49 1.54842 26.8875 2.04294 26.8875H9.14132C9.63584 26.8922 10.0333 26.49 10.0333 26.0002C10.0286 25.5104 9.63111 25.1129 9.14132 25.1129H2.04294Z" fill="#2361A9" stroke="#2361A9"/>
<path d="M42.3084 8.42935L37.2945 13.4491C36.9432 13.7957 36.9432 14.3589 37.2945 14.7055C37.6412 15.0569 38.2055 15.0569 38.5521 14.7055L43.566 9.68695C43.9173 9.34031 43.9173 8.77599 43.566 8.42935C43.2193 8.08271 42.655 8.08271 42.3084 8.42935Z" fill="#2361A9" stroke="#2361A9"/>
<path d="M13.4537 37.2901L8.43399 42.3134C8.08735 42.66 8.08735 43.2196 8.43399 43.5663C8.78063 43.9082 9.34022 43.9082 9.68685 43.5663L14.7101 38.5477C15.0568 38.2022 15.0568 37.6367 14.7101 37.2901C14.3635 36.9435 13.8004 36.9435 13.4537 37.2901Z" fill="#2361A9" stroke="#2361A9"/>
<path d="M37.2945 37.2901C36.9432 37.6367 36.9432 38.2022 37.2945 38.5477L42.3084 43.5663C42.655 43.9129 43.2193 43.9129 43.566 43.5663C43.9126 43.2196 43.9126 42.66 43.566 42.3134L38.5521 37.2901C38.2043 36.9435 37.6412 36.9435 37.2945 37.2901Z" fill="#2361A9" stroke="#2361A9"/>
<path d="M8.43363 8.42925C8.08226 8.77589 8.08226 9.34021 8.43363 9.68685L13.4534 14.7054C13.8 15.0568 14.3631 15.0568 14.7098 14.7054C15.0564 14.3588 15.0564 13.7956 14.7098 13.449L9.6865 8.42925C9.33986 8.08734 8.78027 8.08734 8.43363 8.42925Z" fill="#2361A9" stroke="#2361A9"/>
<path d="M26 22.6308L28.1673 24.0776C28.4122 24.2445 28.7222 24.2764 28.9943 24.1652L31.8183 23.0377L30.6305 27.7747H21.3695L20.1864 23.0377L23.0056 24.1652C23.2777 24.2764 23.5877 24.2445 23.8326 24.0776L26 22.6308ZM33.4036 20.7319C33.1954 20.6574 32.9694 20.6574 32.7659 20.7414L28.7636 22.3445L26.4898 20.8242C26.194 20.6255 25.8059 20.6255 25.5102 20.8242L23.2363 22.3445L19.234 20.7414C18.5597 20.4681 17.8617 21.0738 18.0415 21.7813L19.8161 28.8797C19.9178 29.2725 20.2692 29.5493 20.6762 29.5493H31.3238C31.7307 29.5493 32.0821 29.2725 32.1838 28.8797L33.9584 21.7813C34.0685 21.3424 33.8283 20.8893 33.4036 20.7319Z" fill="#2361A9" stroke="#2361A9"/>
<path d="M20.6762 31.324C20.1864 31.324 19.7889 31.7262 19.7889 32.216C19.7937 32.7011 20.1864 33.0986 20.6762 33.0986H31.3238C31.8136 33.0986 32.2064 32.7011 32.2111 32.216C32.2111 31.7262 31.8136 31.324 31.3238 31.324H20.6762Z" fill="#2361A9" stroke="#2361A9"/>
</g>
<defs>
<clipPath id="clip0_2955_712">
<rect width="52" height="52" fill="white"/>
</clipPath>
</defs>
</svg>
