<svg width="52" height="52" viewBox="0 0 52 52" fill="none" xmlns="http://www.w3.org/2000/svg">
<path d="M32.8332 41.8881C31.9108 41.3701 31.1369 42.7984 32.0369 43.3049C32.7155 43.6868 33.8541 44.4797 33.8541 45.5C33.8541 47.1652 30.6285 49.0208 26 49.0208C21.3715 49.0208 18.1458 47.1652 18.1458 45.5C18.1458 44.4796 19.2847 43.6866 19.9634 43.3047C20.9061 42.774 20.026 41.4047 19.1665 41.8883C17.4602 42.8484 16.5208 44.131 16.5208 45.5C16.5208 48.3855 20.6843 50.6458 26 50.6458C31.3156 50.6458 35.4791 48.3855 35.4791 45.5C35.4791 44.131 34.5397 42.8482 32.8332 41.8881Z" fill="#2361A9" stroke="#2361A9" stroke-width="0.8"/>
<path d="M26 1.35413C16.5917 1.35413 8.9375 9.00834 8.9375 18.4166C8.9375 22.7172 10.3509 26.987 12.8175 30.1333C12.8175 30.1333 25.3539 45.9931 25.3626 46.0041C25.683 46.4093 26.3181 46.4081 26.6375 46.0039C26.6742 45.9574 39.1846 30.1307 39.1846 30.1307C41.6491 26.987 43.0625 22.7172 43.0625 18.4166C43.0625 9.00834 35.4083 1.35413 26 1.35413ZM37.9077 29.1256L26 44.1897L14.0944 29.1278C11.85 26.265 10.5625 22.3606 10.5625 18.4166C10.5625 9.90442 17.4878 2.97913 26 2.97913C34.5122 2.97913 41.4375 9.90442 41.4375 18.4166C41.4375 22.3606 40.15 26.265 37.9077 29.1256Z" fill="#2361A9" stroke="#2361A9" stroke-width="0.8"/>
<path d="M34.5 14.2777L26 18.9999M26 18.9999L17.5 14.2777M26 18.9999L26 28.5M35 23.0585V14.9414C35 14.5988 35 14.4274 34.9495 14.2746C34.9049 14.1395 34.8318 14.0154 34.7354 13.9107C34.6263 13.7924 34.4766 13.7092 34.177 13.5428L26.777 9.43164C26.4934 9.27409 26.3516 9.19531 26.2015 9.16442C26.0685 9.13709 25.9315 9.13709 25.7986 9.16442C25.6484 9.19531 25.5066 9.27409 25.223 9.43165L17.823 13.5428C17.5234 13.7092 17.3737 13.7924 17.2646 13.9107C17.1682 14.0154 17.0951 14.1395 17.0505 14.2746C17 14.4274 17 14.5988 17 14.9414V23.0585C17 23.4012 17 23.5725 17.0505 23.7253C17.0951 23.8605 17.1682 23.9845 17.2646 24.0892C17.3737 24.2076 17.5234 24.2908 17.823 24.4572L25.223 28.5683C25.5066 28.7258 25.6484 28.8046 25.7986 28.8355C25.9315 28.8628 26.0685 28.8628 26.2015 28.8355C26.3516 28.8046 26.4934 28.7258 26.777 28.5683L34.177 24.4572C34.4766 24.2908 34.6263 24.2076 34.7354 24.0892C34.8318 23.9845 34.9049 23.8605 34.9495 23.7253C35 23.5725 35 23.4012 35 23.0585Z" stroke="#2361A9" stroke-width="2" stroke-linecap="round" stroke-linejoin="round"/>
</svg>
